<svg width="10" height="20" viewBox="0 0 10 20" fill="none" xmlns="http://www.w3.org/2000/svg">
<path d="M7.7777 11.7712V2.77742C7.7777 1.24594 6.53144 0 4.99964 0C3.46807 0 2.22206 1.24594 2.22206 2.77742V11.7711C1.0842 12.6379 0.414062 13.9766 0.414062 15.4143C0.414062 17.9429 2.47107 20 4.99964 20C7.52836 20 9.58553 17.9429 9.58553 15.4143C9.58553 13.9768 8.9154 12.638 7.7777 11.7712ZM4.99964 18.8009C3.13233 18.8009 1.61316 17.2817 1.61316 15.4143C1.61316 14.2717 2.18776 13.2131 3.15023 12.5825C3.31931 12.4717 3.42123 12.2831 3.42123 12.081V2.77742C3.42123 1.90712 4.12933 1.19909 4.99972 1.19909C5.87042 1.19909 6.57868 1.90712 6.57868 2.77742V12.081C6.57868 12.2832 6.68052 12.4717 6.84968 12.5825C7.81199 13.2131 8.3866 14.2718 8.3866 15.4143C8.38644 17.2817 6.8671 18.8009 4.99964 18.8009Z" fill="#F3B8B8"/>
<path d="M5.60025 13.5132V5.58978C5.60025 5.25867 5.3319 4.99023 5.00071 4.99023C4.66952 4.99023 4.40116 5.25867 4.40116 5.58978V13.5132C3.59345 13.7677 3.00781 14.5222 3.00781 15.4144C3.00781 16.515 3.89994 17.4074 5.00071 17.4074C6.10171 17.4074 6.99376 16.515 6.99376 15.4144C6.99368 14.5221 6.40804 13.7675 5.60025 13.5132Z" fill="#EA4D4D"/>
</svg>
