<svg width="14" height="20" viewBox="0 0 14 20" fill="none" xmlns="http://www.w3.org/2000/svg">
<path d="M13.2012 13.2099C13.2012 16.6445 10.4095 19.4266 6.97128 19.411C3.54645 19.3955 0.798802 16.6347 0.798828 13.2098C0.798849 10.3614 2.71925 7.96152 5.33619 7.2346C5.87593 7.08467 6.25165 6.59661 6.25165 6.03643V4.80469H7.74836V6.03651C7.74836 6.59474 8.12082 7.08425 8.65881 7.23321C11.2783 7.95847 13.2012 10.3596 13.2012 13.2099Z" fill="#DA880D"/>
<path d="M13.2012 13.2099C13.2012 16.6446 10.4096 19.4265 6.97151 19.4111C3.54647 19.3956 0.798828 16.6349 0.798828 13.2099C0.798828 12.7493 0.849042 12.3008 0.944614 11.8691C1.60463 12.4379 2.51907 12.7903 3.5291 12.7903C5.54241 12.7903 7.17429 11.3912 7.17429 9.6656C7.17429 8.61018 6.56402 7.67691 5.62978 7.11106C6.00735 6.89283 6.25166 6.48776 6.25166 6.03633V4.80469H7.74836V6.03633C7.74836 6.59494 8.1206 7.08402 8.65893 7.23321C11.2782 7.95839 13.2012 10.3594 13.2012 13.2099Z" fill="#FFAA2A"/>
<path d="M7.9525 4.59602L7.95078 5.17512C7.95041 5.31529 7.85817 5.45545 7.67407 5.56233C7.3036 5.77781 6.70091 5.77781 6.32797 5.56233C6.14026 5.45412 6.0465 5.31186 6.04688 5.1698L6.04859 4.59089C6.04859 4.45034 6.14064 4.30999 6.32512 4.20272C6.69578 3.98744 7.29846 3.98744 7.67141 4.20272C7.85931 4.31132 7.95307 4.45376 7.9525 4.59602Z" fill="#FCCB4F"/>
<path d="M7.95243 4.5952L7.95079 5.17508C7.95039 5.31531 7.85822 5.45533 7.67409 5.56233C7.30356 5.77766 6.70083 5.77766 6.32788 5.56234C6.14021 5.45399 6.04647 5.31175 6.04688 5.16973L6.04852 4.58984C6.04812 4.73186 6.14185 4.8741 6.32953 4.98245C6.70247 5.19777 7.3052 5.19777 7.67573 4.98245C7.85987 4.87544 7.95204 4.73542 7.95243 4.5952Z" fill="#F2AA19"/>
<path d="M7.6698 4.2025C8.04275 4.41782 8.04472 4.76695 7.67409 4.98233C7.30356 5.19766 6.70083 5.19766 6.32788 4.98234C5.95493 4.76702 5.95296 4.41789 6.32349 4.20256C6.69412 3.98718 7.29685 3.98718 7.6698 4.2025Z" fill="#FCCB4F"/>
<path d="M7.00078 0.587891C7.27196 0.587891 7.49179 0.807724 7.49179 1.0789V4.55029C7.49181 4.93681 6.50979 4.93681 6.50977 4.55029V1.0789C6.50977 0.807724 6.7296 0.587891 7.00078 0.587891Z" fill="#FFD86A"/>
</svg>
