<svg width="18" height="15" viewBox="0 0 18 15" fill="none" xmlns="http://www.w3.org/2000/svg">
<path d="M8.57142 15C8.4847 15 8.39802 14.9773 8.32034 14.9319C8.23596 14.8827 6.23136 13.7052 4.198 11.9309C2.99284 10.8793 2.03084 9.83633 1.33876 8.83094C0.443188 7.52996 -0.00717908 6.27858 8.65204e-05 5.1115C0.00859096 3.75348 0.489359 2.47635 1.35393 1.51533C2.2331 0.538128 3.40638 0 4.6577 0C6.26139 0 7.7276 0.908849 8.57145 2.34858C9.4153 0.908883 10.8815 0 12.4852 0C13.6674 0 14.7953 0.485555 15.6613 1.36724C16.6116 2.33479 17.1516 3.70189 17.1427 5.11794C17.1355 6.28298 16.6766 7.53247 15.7791 8.83165C15.0849 9.83653 14.1242 10.8791 12.9238 11.9303C10.8979 13.7044 8.90764 14.8819 8.82391 14.9312C8.74586 14.977 8.65861 15 8.57142 15Z" fill="#EA4D4D"/>
</svg>
