<svg width="14" height="16" viewBox="0 0 14 16" fill="none" xmlns="http://www.w3.org/2000/svg">
<path d="M13.988 15.0582L12.3681 5.58098C12.3029 5.19945 11.9863 4.92171 11.6166 4.92171H8.92242C9.42756 4.39998 9.74148 3.67517 9.74148 2.87468C9.74148 1.28956 8.51169 0 7.00003 0C5.48837 0 4.25852 1.28956 4.25852 2.87468C4.25852 3.67517 4.57245 4.39998 5.07759 4.92171H2.38342C2.01371 4.92171 1.69719 5.19945 1.63194 5.58098L0.0119725 15.0582C-0.027879 15.2916 0.0328398 15.5314 0.177944 15.7132C0.322997 15.895 0.537422 16 0.76345 16H13.2366C13.4626 16 13.677 15.895 13.8221 15.7132C13.9671 15.5314 14.0279 15.2916 13.988 15.0582ZM7.00003 1.60108C7.66977 1.60108 8.21461 2.1724 8.21461 2.87468C8.21461 3.57697 7.66977 4.14834 7.00003 4.14834C6.33029 4.14834 5.7854 3.57697 5.7854 2.87468C5.7854 2.1724 6.33029 1.60108 7.00003 1.60108ZM6.80052 12.3884C6.76077 12.4652 6.68401 12.5131 6.60065 12.5131H6.24051C6.15979 12.5131 6.08507 12.4682 6.04425 12.3952L5.15297 10.7997L4.58298 11.4098V12.1446C4.58298 12.3481 4.42561 12.5131 4.2315 12.5131C4.03738 12.5131 3.88001 12.3481 3.88001 12.1446V9.23075C3.88001 9.0272 4.03738 8.86218 4.2315 8.86218C4.42561 8.86218 4.58298 9.0272 4.58298 9.23075V10.4834L5.93574 8.9393C5.9788 8.89015 6.03957 8.86218 6.10319 8.86218H6.41228C6.50359 8.86218 6.58599 8.91939 6.62167 9.0075C6.65729 9.09562 6.63923 9.19755 6.57581 9.26635L5.63749 10.2841L6.7913 12.1446C6.83675 12.218 6.84032 12.3115 6.80052 12.3884ZM10.2636 11.9022C10.2636 11.9747 10.2321 12.0435 10.1781 12.0887C10.0378 12.2061 9.853 12.3114 9.62366 12.4047C9.34414 12.5185 9.06111 12.5753 8.77456 12.5753C8.41035 12.5753 8.09302 12.4952 7.82215 12.335C7.55148 12.1748 7.34795 11.9457 7.21181 11.6476C7.07561 11.3496 7.00756 11.0255 7.00756 10.6751C7.00756 10.295 7.08355 9.95705 7.23557 9.6616C7.38755 9.36604 7.61001 9.13949 7.90297 8.98167C8.1261 8.86053 8.40404 8.79985 8.73654 8.79985C9.1688 8.79985 9.5064 8.89495 9.74947 9.08505C9.85478 9.1674 9.94379 9.26341 10.0165 9.37303C10.086 9.4778 10.1001 9.61234 10.054 9.73039C10.0079 9.8485 9.90791 9.93416 9.78826 9.95764L9.78744 9.9578C9.64727 9.98528 9.50517 9.92017 9.42929 9.79358C9.38073 9.71257 9.31879 9.64324 9.24362 9.58555C9.10819 9.4818 8.93916 9.42992 8.73654 9.42992C8.42934 9.42992 8.18509 9.53207 8.0039 9.73621C7.82261 9.94051 7.73196 10.2435 7.73196 10.6452C7.73196 11.0786 7.82373 11.4036 8.00746 11.6203C8.19109 11.8369 8.43173 11.9452 8.72947 11.9452C8.87666 11.9452 9.02431 11.915 9.17237 11.8543C9.32032 11.7937 9.44741 11.7202 9.55352 11.634V11.1707H9.04177C8.87977 11.1707 8.7485 11.033 8.7485 10.8632C8.7485 10.6933 8.87982 10.5556 9.04177 10.5556H10.0362C10.1618 10.5556 10.2636 10.6624 10.2636 10.7941V11.9022Z" fill="#00FFFF"/>
</svg>
