<svg width="30" height="30" viewBox="0 0 30 30" fill="none" xmlns="http://www.w3.org/2000/svg">
<rect x="30" width="30" height="30" rx="15" transform="rotate(90 30 0)" fill="#F8F8FB"/>
<path d="M14.408 19.7604C14.4861 19.6829 14.5481 19.5908 14.5904 19.4892C14.6327 19.3877 14.6545 19.2787 14.6545 19.1687C14.6545 19.0587 14.6327 18.9498 14.5904 18.8483C14.5481 18.7467 14.4861 18.6545 14.408 18.5771L11.6663 15.8354H19.9997C20.2207 15.8354 20.4326 15.7476 20.5889 15.5913C20.7452 15.435 20.833 15.2231 20.833 15.0021C20.833 14.7811 20.7452 14.5691 20.5889 14.4128C20.4326 14.2565 20.2207 14.1687 19.9997 14.1687H11.6663L14.408 11.4271C14.4861 11.3496 14.5481 11.2574 14.5904 11.1559C14.6327 11.0543 14.6545 10.9454 14.6545 10.8354C14.6545 10.7254 14.6327 10.6165 14.5904 10.5149C14.5481 10.4134 14.4861 10.3212 14.408 10.2437C14.2519 10.0885 14.0407 10.0014 13.8205 10.0014C13.6004 10.0014 13.3891 10.0885 13.233 10.2437L9.65801 13.8271C9.34502 14.1382 9.1682 14.5608 9.16634 15.0021C9.17039 15.4405 9.34704 15.8596 9.65801 16.1687L13.233 19.7521C13.388 19.9084 13.5986 19.997 13.8188 19.9986C14.0389 20.0001 14.2508 19.9145 14.408 19.7604Z" fill="#373C3A"/>
</svg>
