<svg width="14" height="14" viewBox="0 0 14 14" fill="none" xmlns="http://www.w3.org/2000/svg">
<g clip-path="url(#clip0_1945_2007)">
<path d="M12.2501 3.5H8.75015C8.42756 3.5 8.16681 3.76075 8.16681 4.08333C8.16681 4.40592 8.42756 4.66667 8.75015 4.66667H12.0086L8.18081 8.4945C7.85181 8.8235 7.31631 8.8235 6.98673 8.4945L5.50565 7.01342C4.72165 6.22942 3.4459 6.22942 2.6619 7.01342L0.171063 9.50425C-0.0570208 9.73233 -0.0570208 10.101 0.171063 10.3291C0.284813 10.4428 0.434146 10.5 0.583479 10.5C0.732813 10.5 0.882146 10.4428 0.995896 10.3291L3.48673 7.83825C3.80581 7.51917 4.36173 7.51917 4.68081 7.83825L6.1619 9.31933C6.9459 10.1033 8.22165 10.1033 9.00565 9.31933L12.8341 5.4915V8.75C12.8341 9.07258 13.0948 9.33333 13.4174 9.33333C13.74 9.33333 14.0007 9.07258 14.0007 8.75V5.25C14.0007 4.28517 13.215 3.5 12.2501 3.5Z" fill="#48A648"/>
</g>
<defs>
<clipPath id="clip0_1945_2007">
<rect width="14" height="14" fill="white"/>
</clipPath>
</defs>
</svg>
