<svg width="30" height="30" viewBox="0 0 30 30" fill="none" xmlns="http://www.w3.org/2000/svg">
<rect y="30" width="30" height="30" rx="15" transform="rotate(-90 0 30)" fill="#F8F8FB"/>
<path d="M15.592 10.2396C15.5139 10.3171 15.4519 10.4092 15.4096 10.5108C15.3673 10.6123 15.3455 10.7213 15.3455 10.8313C15.3455 10.9413 15.3673 11.0502 15.4096 11.1517C15.4519 11.2533 15.5139 11.3455 15.592 11.4229L18.3337 14.1646H10.0003C9.77931 14.1646 9.56735 14.2524 9.41107 14.4087C9.25479 14.565 9.16699 14.7769 9.16699 14.9979C9.16699 15.2189 9.25479 15.4309 9.41107 15.5872C9.56735 15.7435 9.77931 15.8313 10.0003 15.8313H18.3337L15.592 18.5729C15.5139 18.6504 15.4519 18.7426 15.4096 18.8441C15.3673 18.9457 15.3455 19.0546 15.3455 19.1646C15.3455 19.2746 15.3673 19.3835 15.4096 19.4851C15.4519 19.5866 15.5139 19.6788 15.592 19.7563C15.7481 19.9115 15.9593 19.9986 16.1795 19.9986C16.3996 19.9986 16.6109 19.9115 16.767 19.7563L20.342 16.1729C20.655 15.8618 20.8318 15.4392 20.8337 14.9979C20.8296 14.5595 20.653 14.1404 20.342 13.8313L16.767 10.2479C16.612 10.0916 16.4014 10.003 16.1812 10.0014C15.9611 9.99987 15.7492 10.0855 15.592 10.2396Z" fill="#373C3A"/>
</svg>
