<svg width="16" height="16" viewBox="0 0 16 16" fill="none" xmlns="http://www.w3.org/2000/svg">
<path d="M14.6091 9.65C14.4193 9.23304 14.177 8.83435 13.8908 8.46304C12.8979 7.1787 11.8087 5.5413 11.7999 5.52304C11.7445 5.44087 11.6569 5.39217 11.5605 5.39217C11.4641 5.39217 11.3736 5.44087 11.321 5.52304C11.3152 5.53217 10.8275 6.26565 10.2114 7.13C9.96609 6.65217 9.67407 6.18957 9.33534 5.7513C7.86066 3.83696 6.23997 1.40522 6.22537 1.38087C6.16989 1.2987 6.08228 1.25 5.98592 1.25C5.88955 1.25 5.79903 1.2987 5.74646 1.38087C5.72894 1.40522 4.11117 3.84 2.63357 5.7513C2.21307 6.29609 1.85973 6.88043 1.58232 7.48609C0.954484 8.8587 0.837678 10.3713 1.24942 11.75C2.28024 15.1952 5.94503 15.25 5.98592 15.25C6.0122 15.25 7.76429 15.2226 9.18641 14.0752C10.1851 15.0035 11.4992 15.0187 11.5605 15.0187C11.5868 15.0187 14.1244 14.9791 14.8398 12.59C15.126 11.6374 15.0442 10.5904 14.6121 9.64391L14.6091 9.65ZM1.80425 11.5704C1.43631 10.3378 1.54144 8.98043 2.10503 7.74783C2.362 7.18478 2.69198 6.64 3.08328 6.13174C4.23382 4.64043 5.46905 2.83565 5.98007 2.08087C6.48818 2.83565 7.72633 4.63739 8.87687 6.13174C9.26817 6.64 9.59815 7.18174 9.85512 7.74783C10.4187 8.98043 10.5268 10.3378 10.1559 11.5704C9.90769 12.3952 9.49302 12.9978 9.01704 13.4391C9.0112 13.4452 9.00244 13.4452 8.9966 13.4513C8.99076 13.4574 8.99076 13.4635 8.98492 13.4696C7.72925 14.6109 6.0706 14.6413 5.97715 14.6443C5.84283 14.6443 2.70074 14.5865 1.79841 11.5704H1.80425ZM14.2792 12.4135C13.6922 14.3735 11.6423 14.413 11.5576 14.413C11.5459 14.413 10.4567 14.3978 9.62443 13.6674C10.08 13.1865 10.4713 12.5657 10.7166 11.75C11.102 10.4596 11.0173 9.05043 10.4917 7.75087C10.9268 7.14522 11.3181 6.57609 11.5576 6.22609C11.9372 6.78609 12.711 7.90609 13.4352 8.84348C13.6951 9.17826 13.9112 9.54043 14.0835 9.91174C14.4515 10.7183 14.5215 11.607 14.2821 12.4135H14.2792Z" fill="#373C3A" stroke="#373C3A" stroke-width="0.3"/>
<path d="M5.64161 12.095C4.58911 11.675 3.88911 10.935 3.56661 9.89498C3.52411 9.76248 3.38411 9.68998 3.25411 9.72998C3.12161 9.76998 3.04911 9.91248 3.08911 10.0425C3.45661 11.215 4.27411 12.085 5.45661 12.5575C5.48661 12.57 5.51911 12.575 5.54911 12.575C5.64911 12.575 5.74161 12.515 5.78161 12.4175C5.83411 12.29 5.77161 12.145 5.64161 12.0925V12.095Z" fill="#373C3A"/>
</svg>
