<svg width="38" height="40" viewBox="0 0 38 40" fill="none" xmlns="http://www.w3.org/2000/svg">
<path d="M27.6246 20.7129C22.9871 20.7129 19.2246 24.4753 19.2246 29.1003C19.2246 33.7379 22.9871 37.5004 27.6246 37.5004C32.2496 37.5004 36.0121 33.7379 36.0121 29.1003C36.0121 24.4753 32.2496 20.7129 27.6246 20.7129ZM30.2746 29.9879C30.7621 30.4754 30.7621 31.2629 30.2746 31.7503C30.0246 32.0004 29.7121 32.1254 29.3871 32.1254C29.0746 32.1254 28.7496 32.0004 28.4996 31.7503L27.6246 30.8754L26.7371 31.7503C26.4871 32.0004 26.1746 32.1254 25.8496 32.1254C25.5371 32.1254 25.2121 32.0004 24.9746 31.7503C24.4746 31.2629 24.4746 30.4754 24.9746 29.9879L25.8496 29.1003L24.9746 28.2253C24.4746 27.7379 24.4746 26.9379 24.9746 26.4503C25.4621 25.9628 26.2496 25.9628 26.7371 26.4503L27.6246 27.3379L28.4996 26.4503C28.9996 25.9628 29.7871 25.9628 30.2746 26.4503C30.7621 26.9379 30.7621 27.7379 30.2746 28.2253L29.3871 29.1003L30.2746 29.9879Z" fill="#DCA78F"/>
<path d="M3.9873 11.125V12.3875H32.1748V11.125C32.1748 7.99995 29.6373 5.46249 26.5248 5.46249H25.0315V3.75C25.0315 3.05969 24.4725 2.5 23.7815 2.5C23.0906 2.5 22.5315 3.05969 22.5315 3.75V5.46249H13.629V3.75C13.629 3.05969 13.0699 2.5 12.379 2.5C11.688 2.5 11.129 3.05969 11.129 3.75V5.46249H9.63733C6.52477 5.46249 3.9873 7.99995 3.9873 11.125Z" fill="#DCA78F"/>
<path d="M3.9873 28C3.9873 31.125 6.52477 33.6625 9.63733 33.6625H17.7373C17.0873 32.275 16.7248 30.7249 16.7248 29.1C16.7248 23.1 21.6123 18.2125 27.6248 18.2125C29.2498 18.2125 30.7873 18.575 32.1748 19.2125V14.8875H3.9873V28ZM18.0873 19.1375H18.0998C18.7998 19.1375 19.3498 19.7 19.3498 20.3875C19.3498 21.075 18.7998 21.6375 18.0998 21.6375C17.4123 21.6375 16.8498 21.075 16.8498 20.3875C16.8498 19.7 17.3998 19.1375 18.0873 19.1375ZM11.6248 19.1375H11.6373C12.3248 19.1375 12.8873 19.7 12.8873 20.3875C12.8873 21.075 12.3248 21.6375 11.6373 21.6375C10.9498 21.6375 10.3873 21.075 10.3873 20.3875C10.3873 19.7 10.9373 19.1375 11.6248 19.1375ZM11.6248 24.3999H11.6373C12.3248 24.3999 12.8873 24.9625 12.8873 25.6499C12.8873 26.3499 12.3248 26.8999 11.6373 26.8999C10.9498 26.8999 10.3873 26.3499 10.3873 25.6499C10.3873 24.9625 10.9373 24.3999 11.6248 24.3999Z" fill="#DCA78F"/>
</svg>
