<svg width="24" height="24" viewBox="0 0 24 24" fill="none" xmlns="http://www.w3.org/2000/svg">
<g clip-path="url(#clip0_1945_16009)">
<path fill-rule="evenodd" clip-rule="evenodd" d="M18.8879 11.1628C17.0393 11.1628 15.5391 12.6631 15.5391 14.5117C15.5391 16.3602 17.0393 17.8605 18.8879 17.8605C20.7365 17.8605 22.2367 16.3602 22.2367 14.5117C22.2367 12.6631 20.7365 11.1628 18.8879 11.1628ZM18.8879 12.8373C19.8122 12.8373 20.5623 13.5874 20.5623 14.5117C20.5623 15.436 19.8122 16.1861 18.8879 16.1861C17.9636 16.1861 17.2135 15.436 17.2135 14.5117C17.2135 13.5874 17.9636 12.8373 18.8879 12.8373Z" fill="black" stroke="white" stroke-width="0.5"/>
<path fill-rule="evenodd" clip-rule="evenodd" d="M15.7144 23.9999C17.4112 23.9999 20.3727 23.9999 22.0694 23.9854C22.6957 23.9854 23.2895 23.675 23.6523 23.1549C24.0151 22.6347 24.0999 21.9705 23.8811 21.3755C23.1522 19.3316 21.1909 17.8604 18.888 17.8604C16.5885 17.8604 14.6283 19.3271 13.8804 21.371C13.6594 21.9705 13.7453 22.6403 14.1115 23.1638C14.4765 23.6884 15.0759 23.9999 15.7144 23.9999ZM15.7144 22.3255C15.6229 22.3255 15.537 22.2808 15.4845 22.206C15.432 22.1312 15.4197 22.0352 15.451 21.9493C15.4521 21.9493 15.4521 21.9482 15.4521 21.9482C15.9656 20.545 17.3096 19.5348 18.888 19.5348C20.4642 19.5348 21.806 20.5417 22.3072 21.9459C22.3083 21.9493 22.3083 21.9526 22.3094 21.9549C22.3396 22.0364 22.3284 22.1268 22.2782 22.1971C22.2291 22.2685 22.1487 22.311 22.0616 22.311C22.0594 22.311 22.0571 22.311 22.0549 22.311C20.3615 22.3255 17.4067 22.3255 15.7144 22.3255Z" fill="black" stroke="white" stroke-width="0.5"/>
<path fill-rule="evenodd" clip-rule="evenodd" d="M21.7674 8.65106V5.86036C21.7674 3.54855 19.8932 1.67432 17.5814 1.67432H4.18605C1.87423 1.67432 0 3.54855 0 5.86036V19.2557C0 21.5675 1.87423 23.4418 4.18605 23.4418H10.8837C11.3459 23.4418 11.7209 23.0667 11.7209 22.6045C11.7209 22.1424 11.3459 21.7673 10.8837 21.7673C10.8837 21.7673 7.10847 21.7673 4.18605 21.7673C2.79851 21.7673 1.67442 20.6432 1.67442 19.2557V5.86036C1.67442 4.47283 2.79851 3.34874 4.18605 3.34874H17.5814C18.9689 3.34874 20.093 4.47283 20.093 5.86036V8.65106C20.093 9.1132 20.4681 9.48827 20.9302 9.48827C21.3924 9.48827 21.7674 9.1132 21.7674 8.65106Z" fill="black" stroke="white" stroke-width="0.3"/>
<path fill-rule="evenodd" clip-rule="evenodd" d="M5.30273 0.837209V4.18605C5.30273 4.64819 5.6778 5.02326 6.13994 5.02326C6.60208 5.02326 6.97715 4.64819 6.97715 4.18605V0.837209C6.97715 0.37507 6.60208 0 6.13994 0C5.6778 0 5.30273 0.37507 5.30273 0.837209Z" fill="black"/>
<path fill-rule="evenodd" clip-rule="evenodd" d="M14.791 0.837209V4.18605C14.791 4.64819 15.1661 5.02326 15.6282 5.02326C16.0904 5.02326 16.4654 4.64819 16.4654 4.18605V0.837209C16.4654 0.37507 16.0904 0 15.6282 0C15.1661 0 14.791 0.37507 14.791 0.837209Z" fill="black"/>
<path fill-rule="evenodd" clip-rule="evenodd" d="M5.30205 10.6046H8.76252C9.22466 10.6046 9.59973 10.2295 9.59973 9.76739C9.59973 9.30525 9.22466 8.93018 8.76252 8.93018H5.30205C4.83991 8.93018 4.46484 9.30525 4.46484 9.76739C4.46484 10.2295 4.83991 10.6046 5.30205 10.6046Z" fill="black"/>
<path fill-rule="evenodd" clip-rule="evenodd" d="M5.30205 15.0697H10.8834C11.3456 15.0697 11.7207 14.6946 11.7207 14.2325C11.7207 13.7703 11.3456 13.3953 10.8834 13.3953H5.30205C4.83991 13.3953 4.46484 13.7703 4.46484 14.2325C4.46484 14.6946 4.83991 15.0697 5.30205 15.0697Z" fill="black"/>
</g>
<defs>
<clipPath id="clip0_1945_16009">
<rect width="24" height="24" fill="white"/>
</clipPath>
</defs>
</svg>
