<svg width="16" height="16" viewBox="0 0 16 16" fill="none" xmlns="http://www.w3.org/2000/svg">
<g clip-path="url(#clip0_1945_15281)">
<path fill-rule="evenodd" clip-rule="evenodd" d="M4.45908 2.33645C3.64263 2.85421 2.90906 3.49597 2.33436 4.16675H3.99935C4.27549 4.16675 4.49935 4.39061 4.49935 4.66675C4.49935 4.94289 4.27549 5.16675 3.99935 5.16675H0.832682V2.00008C0.832682 1.72394 1.05654 1.50008 1.33268 1.50008C1.60882 1.50008 1.83268 1.72394 1.83268 2.00008V3.22733C2.42985 2.58439 3.14524 1.98551 3.92352 1.49195C5.15692 0.709768 6.58889 0.166748 7.99935 0.166748C12.3255 0.166748 15.8327 3.67385 15.8327 8.00008C15.8327 12.3263 12.3255 15.8334 7.99935 15.8334C3.67312 15.8334 0.166016 12.3263 0.166016 8.00008H1.16602C1.16602 11.774 4.2254 14.8334 7.99935 14.8334C11.7733 14.8334 14.8327 11.774 14.8327 8.00008C14.8327 4.22613 11.7733 1.16675 7.99935 1.16675C6.83542 1.16675 5.58831 1.62033 4.45908 2.33645ZM7.99935 4.83342C8.27548 4.83342 8.49935 5.05727 8.49935 5.33342V7.77435L10.2698 8.91288C10.5021 9.06221 10.5693 9.37161 10.4199 9.60388C10.2705 9.83615 9.96115 9.90335 9.72888 9.75395L7.72888 8.46782C7.58582 8.37582 7.49935 8.21741 7.49935 8.04728V5.33342C7.49935 5.05727 7.72322 4.83342 7.99935 4.83342Z" fill="#373C3A"/>
</g>
<defs>
<clipPath id="clip0_1945_15281">
<rect width="16" height="16" fill="white"/>
</clipPath>
</defs>
</svg>
