<svg width="16" height="16" viewBox="0 0 16 16" fill="none" xmlns="http://www.w3.org/2000/svg">
<g clip-path="url(#clip0_1945_15187)">
<path fill-rule="evenodd" clip-rule="evenodd" d="M4.45908 2.33633C3.64263 2.85409 2.90906 3.49585 2.33436 4.16663H3.99935C4.27549 4.16663 4.49935 4.39049 4.49935 4.66663C4.49935 4.94277 4.27549 5.16663 3.99935 5.16663H0.832682V1.99996C0.832682 1.72382 1.05654 1.49996 1.33268 1.49996C1.60882 1.49996 1.83268 1.72382 1.83268 1.99996V3.22721C2.42985 2.58427 3.14524 1.98539 3.92352 1.49183C5.15692 0.709646 6.58889 0.166626 7.99935 0.166626C12.3255 0.166626 15.8327 3.67373 15.8327 7.99996C15.8327 12.3262 12.3255 15.8333 7.99935 15.8333C3.67312 15.8333 0.166016 12.3262 0.166016 7.99996H1.16602C1.16602 11.7739 4.2254 14.8333 7.99935 14.8333C11.7733 14.8333 14.8327 11.7739 14.8327 7.99996C14.8327 4.22601 11.7733 1.16663 7.99935 1.16663C6.83542 1.16663 5.58831 1.62021 4.45908 2.33633ZM7.99935 4.83329C8.27548 4.83329 8.49935 5.05715 8.49935 5.33329V7.77423L10.2698 8.91276C10.5021 9.06209 10.5693 9.37149 10.4199 9.60376C10.2705 9.83603 9.96115 9.90323 9.72888 9.75383L7.72888 8.46769C7.58582 8.37569 7.49935 8.21729 7.49935 8.04716V5.33329C7.49935 5.05715 7.72322 4.83329 7.99935 4.83329Z" fill="#373C3A"/>
</g>
<defs>
<clipPath id="clip0_1945_15187">
<rect width="16" height="16" fill="white"/>
</clipPath>
</defs>
</svg>
