<svg width="20" height="20" viewBox="0 0 20 20" fill="none" xmlns="http://www.w3.org/2000/svg">
<g clip-path="url(#clip0_1945_25081)">
<path d="M9.16602 3.33301H3.33268C2.89065 3.33301 2.46673 3.5086 2.15417 3.82116C1.84161 4.13372 1.66602 4.55765 1.66602 4.99967V16.6663C1.66602 17.1084 1.84161 17.5323 2.15417 17.8449C2.46673 18.1574 2.89065 18.333 3.33268 18.333H14.9993C15.4414 18.333 15.8653 18.1574 16.1779 17.8449C16.4904 17.5323 16.666 17.1084 16.666 16.6663V10.833" stroke="#373C3A" stroke-width="1.5" stroke-linecap="round" stroke-linejoin="round"/>
<path d="M15.416 2.0832C15.7475 1.75168 16.1972 1.56543 16.666 1.56543C17.1349 1.56543 17.5845 1.75168 17.916 2.0832C18.2475 2.41472 18.4338 2.86436 18.4338 3.3332C18.4338 3.80204 18.2475 4.25168 17.916 4.5832L9.99935 12.4999L6.66602 13.3332L7.49935 9.99986L15.416 2.0832Z" stroke="#373C3A" stroke-width="1.5" stroke-linecap="round" stroke-linejoin="round"/>
</g>
<defs>
<clipPath id="clip0_1945_25081">
<rect width="20" height="20" fill="white"/>
</clipPath>
</defs>
</svg>
