<svg width="25" height="24" viewBox="0 0 25 24" fill="none" xmlns="http://www.w3.org/2000/svg">
<path d="M3.5 6.25C3.08579 6.25 2.75 6.58579 2.75 7C2.75 7.41421 3.08579 7.75 3.5 7.75V6.25ZM3.5 16.25C3.08579 16.25 2.75 16.5858 2.75 17C2.75 17.4142 3.08579 17.75 3.5 17.75V16.25ZM9.5 17.75C9.91421 17.75 10.25 17.4142 10.25 17C10.25 16.5858 9.91421 16.25 9.5 16.25V17.75ZM21.5 17.75C21.9142 17.75 22.25 17.4142 22.25 17C22.25 16.5858 21.9142 16.25 21.5 16.25V17.75ZM15.5 6.25C15.0858 6.25 14.75 6.58579 14.75 7C14.75 7.41421 15.0858 7.75 15.5 7.75V6.25ZM21.5 7.75C21.9142 7.75 22.25 7.41421 22.25 7C22.25 6.58579 21.9142 6.25 21.5 6.25V7.75ZM3.5 7.75H6.5V6.25H3.5V7.75ZM3.5 17.75H9.5V16.25H3.5V17.75ZM18.5 17.75H21.5V16.25H18.5V17.75ZM15.5 7.75H21.5V6.25H15.5V7.75ZM17.75 17C17.75 18.2426 16.7426 19.25 15.5 19.25V20.75C17.5711 20.75 19.25 19.0711 19.25 17H17.75ZM15.5 19.25C14.2574 19.25 13.25 18.2426 13.25 17H11.75C11.75 19.0711 13.4289 20.75 15.5 20.75V19.25ZM13.25 17C13.25 15.7574 14.2574 14.75 15.5 14.75V13.25C13.4289 13.25 11.75 14.9289 11.75 17H13.25ZM15.5 14.75C16.7426 14.75 17.75 15.7574 17.75 17H19.25C19.25 14.9289 17.5711 13.25 15.5 13.25V14.75ZM11.75 7C11.75 8.24264 10.7426 9.25 9.5 9.25V10.75C11.5711 10.75 13.25 9.07107 13.25 7H11.75ZM9.5 9.25C8.25736 9.25 7.25 8.24264 7.25 7H5.75C5.75 9.07107 7.42893 10.75 9.5 10.75V9.25ZM7.25 7C7.25 5.75736 8.25736 4.75 9.5 4.75V3.25C7.42893 3.25 5.75 4.92893 5.75 7H7.25ZM9.5 4.75C10.7426 4.75 11.75 5.75736 11.75 7H13.25C13.25 4.92893 11.5711 3.25 9.5 3.25V4.75Z" fill="#373C3A"/>
</svg>
