<svg width="24" height="24" viewBox="0 0 24 24" fill="none" xmlns="http://www.w3.org/2000/svg">
<g clip-path="url(#clip0_1945_16022)">
<path d="M0.703125 5.15625C0.314812 5.15625 0 4.84144 0 4.45312V1.40625C0 0.630844 0.630844 0 1.40625 0H4.45312C4.84144 0 5.15625 0.314812 5.15625 0.703125C5.15625 1.09144 4.84144 1.40625 4.45312 1.40625H1.40625V4.45312C1.40625 4.84144 1.09144 5.15625 0.703125 5.15625Z" fill="black" stroke="white" stroke-width="0.1"/>
<path d="M4.45312 24H1.40625C0.630844 24 0 23.3692 0 22.5938V19.5469C0 19.1586 0.314812 18.8438 0.703125 18.8438C1.09144 18.8438 1.40625 19.1586 1.40625 19.5469V22.5938H4.45312C4.84144 22.5938 5.15625 22.9086 5.15625 23.2969C5.15625 23.6852 4.84144 24 4.45312 24Z" fill="black" stroke="white" stroke-width="0.1"/>
<path d="M22.5938 24H19.5469C19.1586 24 18.8438 23.6852 18.8438 23.2969C18.8438 22.9086 19.1586 22.5938 19.5469 22.5938H22.5938V19.5469C22.5938 19.1586 22.9086 18.8438 23.2969 18.8438C23.6852 18.8438 24 19.1586 24 19.5469V22.5938C24 23.3692 23.3692 24 22.5938 24Z" fill="black" stroke="white" stroke-width="0.1"/>
<path d="M23.2969 5.15625C22.9086 5.15625 22.5938 4.84144 22.5938 4.45312V1.40625H19.5469C19.1586 1.40625 18.8438 1.09144 18.8438 0.703125C18.8438 0.314812 19.1586 0 19.5469 0H22.5938C23.3692 0 24 0.630844 24 1.40625V4.45312C24 4.84144 23.6852 5.15625 23.2969 5.15625Z" fill="black" stroke="white" stroke-width="0.1"/>
<path d="M12 14.3756C11.6117 14.3756 11.2969 14.0607 11.2969 13.6724V10.2908C11.2969 9.90246 11.6117 9.58765 12 9.58765C12.3883 9.58765 12.7031 9.90246 12.7031 10.2908V13.6724C12.7031 14.0607 12.3883 14.3756 12 14.3756Z" fill="black" stroke="white" stroke-width="0.1"/>
<path d="M12.0002 23.9267C9.54502 23.9267 7.24083 22.8729 5.51213 20.9593C3.80147 19.0658 2.85938 16.5529 2.85938 13.8836V10.0795C2.85938 7.41024 3.80147 4.89731 5.51213 3.0038C7.24083 1.09027 9.54502 0.036377 12.0002 0.036377C14.4552 0.036377 16.7592 1.08999 18.4878 3.00319C20.1984 4.89638 21.1407 7.40888 21.1411 10.0779V13.8836C21.1411 16.5529 20.199 19.0658 18.4883 20.9593C16.7596 22.8729 14.4555 23.9267 12.0002 23.9267ZM12.0002 1.44263C7.73536 1.44263 4.26563 5.31708 4.26563 10.0795V13.8836C4.26563 18.646 7.73536 22.5205 12.0002 22.5205C16.2651 22.5205 19.7348 18.646 19.7348 13.8836V10.0782C19.7341 5.31647 16.2644 1.44263 12.0002 1.44263Z" fill="black" stroke="white" stroke-width="0.1"/>
<path d="M12.0002 20.8136C8.51077 20.8136 5.67188 17.7049 5.67188 13.8837V10.0796C5.67188 9.69128 5.98669 9.37646 6.375 9.37646C6.76331 9.37646 7.07812 9.69128 7.07812 10.0796V13.8837C7.07812 16.9295 9.28617 19.4073 12.0002 19.4073C14.7143 19.4073 16.9223 16.9295 16.9223 13.8837C16.9223 13.4954 17.2372 13.1806 17.6255 13.1806C18.0138 13.1806 18.3286 13.4954 18.3286 13.8837C18.3286 17.7048 15.4897 20.8136 12.0002 20.8136Z" fill="black" stroke="white" stroke-width="0.1"/>
<path d="M9.1875 14.5868C8.79919 14.5868 8.48438 14.272 8.48438 13.8837V10.0795C8.48438 7.97505 10.0616 6.26294 12.0002 6.26294C12.3885 6.26294 12.7034 6.57775 12.7034 6.96606C12.7034 7.35438 12.3885 7.66919 12.0002 7.66919C10.837 7.66919 9.89062 8.75046 9.89062 10.0795V13.8837C9.89062 14.272 9.57581 14.5868 9.1875 14.5868Z" fill="black" stroke="white" stroke-width="0.1"/>
<path d="M12 17.7002C11.6117 17.7002 11.2969 17.3854 11.2969 16.9971C11.2969 16.6088 11.6117 16.294 12 16.294C13.1632 16.294 14.1096 15.2127 14.1096 13.8836V10.0792C14.1096 9.69093 14.4244 9.37598 14.8127 9.37598C15.201 9.37598 15.5159 9.69065 15.5159 10.079V13.8836C15.5159 15.9881 13.9386 17.7002 12 17.7002Z" fill="black" stroke="white" stroke-width="0.1"/>
<path d="M18.2784 9.86241C18.2784 9.98757 18.2935 10.115 18.2756 10.2375C18.2213 10.6088 17.8978 10.8713 17.5425 10.8462C17.1678 10.8197 16.8814 10.5268 16.877 10.1423C16.8712 9.62354 16.8201 9.11124 16.689 8.60967C16.3201 7.19817 15.5727 6.05386 14.3411 5.26421C13.6343 4.81102 12.8574 4.57936 12.0175 4.5751C11.7131 4.57355 11.4777 4.44558 11.3443 4.16452C11.223 3.90914 11.2504 3.65733 11.4183 3.42994C11.5657 3.23011 11.7707 3.14189 12.0162 3.14485C13.137 3.1583 14.1739 3.46561 15.1186 4.07344C16.4311 4.91789 17.3185 6.10753 17.8495 7.57711C18.1159 8.31441 18.2532 9.07829 18.2784 9.86241Z" fill="black" stroke="white" stroke-width="0.1"/>
</g>
<defs>
<clipPath id="clip0_1945_16022">
<rect width="24" height="24" fill="white"/>
</clipPath>
</defs>
</svg>
