<svg width="38" height="36" viewBox="0 0 38 36" fill="none" xmlns="http://www.w3.org/2000/svg">
<g clip-path="url(#clip0_1945_2062)">
<path d="M31.4352 4.30965C24.9911 2.58369 18.84 14.5934 20.8312 22.9875C20.9269 23.3904 21.2355 23.7076 21.635 23.8144L30.1701 26.1019C30.5858 26.2111 31.0051 26.0777 31.2791 25.7876C37.2517 19.4601 37.8079 6.01795 31.4352 4.30965Z" fill="#7FAFE6"/>
<path d="M29.124 28.151L21.5163 26.1124C20.9164 25.9514 20.2991 26.3079 20.1387 26.9077L19.4102 29.6248C18.6881 32.3215 20.2941 35.1033 22.9908 35.8255C25.6714 36.5476 28.4625 34.9653 29.1915 32.2456L29.9193 29.5285C30.0793 28.9321 29.7267 28.3127 29.124 28.151Z" fill="#7FAFE6"/>
<path d="M15.1854 18.8349C16.4258 13.6055 14.4873 6.39696 10.7638 2.51548C6.71204 -1.70782 1.83029 -0.500597 0.40663 5.29093C-0.876744 10.5085 1.04434 17.7239 4.73751 21.6349C5.01253 21.9261 5.43233 22.0582 5.84643 21.9493L14.3816 19.6618C14.781 19.555 15.0897 19.2372 15.1854 18.8349Z" fill="#7FAFE6"/>
<path d="M15.8788 22.7547C15.7179 22.1551 15.1008 21.7985 14.5006 21.9594L6.89359 23.998C6.29308 24.1583 5.93727 24.7757 6.0983 25.3755L6.82609 28.0926C7.54544 30.777 10.3144 32.3965 13.0267 31.6725C15.7298 30.948 17.3313 28.1756 16.6066 25.4718L15.8788 22.7547Z" fill="#7FAFE6"/>
</g>
<defs>
<clipPath id="clip0_1945_2062">
<rect width="37.8" height="36" fill="white"/>
</clipPath>
</defs>
</svg>
