<svg width="24" height="24" viewBox="0 0 24 24" fill="none" xmlns="http://www.w3.org/2000/svg">
<circle cx="12" cy="12" r="12" fill="#6ABA71"/>
<g clip-path="url(#clip0_1945_14002)">
<path d="M17.332 9.24146C17.1506 9.1436 16.9459 9.09751 16.7401 9.10825C16.5343 9.11899 16.3354 9.18613 16.1652 9.30234L14 10.7554V9.60002C13.9996 9.28188 13.8731 8.97686 13.6481 8.75189C13.4232 8.52693 13.1181 8.40038 12.8 8.40002H7.2C6.88185 8.40038 6.57684 8.52693 6.35187 8.75189C6.1269 8.97686 6.00036 9.28188 6 9.60002V15.2C6.00036 15.5182 6.1269 15.8232 6.35187 16.0482C6.57684 16.2731 6.88185 16.3997 7.2 16.4H12.8C13.1181 16.3997 13.4232 16.2731 13.6481 16.0482C13.8731 15.8232 13.9996 15.5182 14 15.2V14.0446L16.1656 15.4977C16.3354 15.6147 16.5343 15.6823 16.7402 15.6931C16.9461 15.7038 17.151 15.6573 17.332 15.5586C17.5382 15.4441 17.7093 15.2756 17.827 15.0713C17.9446 14.8669 18.0045 14.6344 18 14.3986V10.4016C18.0045 10.1658 17.9447 9.93324 17.827 9.72885C17.7093 9.52446 17.5382 9.35597 17.332 9.24146ZM13.2 15.2C13.1999 15.3061 13.1577 15.4077 13.0827 15.4827C13.0077 15.5577 12.906 15.5999 12.8 15.6H7.2C7.09395 15.5999 6.99228 15.5577 6.9173 15.4827C6.84231 15.4077 6.80013 15.3061 6.8 15.2V9.60002C6.80013 9.49398 6.84231 9.39231 6.9173 9.31732C6.99228 9.24234 7.09395 9.20015 7.2 9.20002H12.8C12.906 9.20015 13.0077 9.24234 13.0827 9.31732C13.1577 9.39231 13.1999 9.49398 13.2 9.60002V15.2ZM17.2 14.3984C17.2043 14.4893 17.1838 14.5796 17.1408 14.6597C17.0977 14.7398 17.0336 14.8067 16.9554 14.8531C16.9023 14.8832 16.8416 14.8974 16.7806 14.8939C16.7196 14.8904 16.6609 14.8695 16.6114 14.8336L14 13.0813V11.7187L16.611 9.96674C16.6607 9.93138 16.7194 9.91078 16.7804 9.90733C16.8413 9.90388 16.902 9.91771 16.9554 9.94722C17.0336 9.99368 17.0976 10.0605 17.1407 10.1405C17.1838 10.2206 17.2043 10.3108 17.2 10.4016V14.3984Z" fill="white" stroke="#6ABA71" stroke-width="0.2"/>
</g>
<defs>
<clipPath id="clip0_1945_14002">
<rect width="12.8" height="12.8" fill="white" transform="translate(5.59961 6)"/>
</clipPath>
</defs>
</svg>
