<svg width="24" height="24" viewBox="0 0 24 24" fill="none" xmlns="http://www.w3.org/2000/svg">
<path d="M22.766 8.94109L12.3377 1.11319C12.1366 0.962269 11.8634 0.962269 11.6624 1.11319L1.23399 8.94109C0.979271 9.13232 0.923927 9.49901 1.11045 9.76015C1.29698 10.0213 1.6547 10.0779 1.90937 9.8868L12 2.31233L22.0906 9.88676C22.1924 9.96319 22.3106 9.99997 22.4279 9.99997C22.6039 9.99997 22.7775 9.91693 22.8895 9.76011C23.0761 9.49901 23.0207 9.13232 22.766 8.94109Z" fill="black" stroke="black" stroke-width="0.3"/>
<path d="M20.7306 10.9004C20.3862 10.9004 20.107 11.1796 20.107 11.524V21.4497H15.1185V16.0316C15.1185 14.3122 13.7196 12.9135 12.0003 12.9135C10.2811 12.9135 8.88222 14.3123 8.88222 16.0316V21.4497H3.89364V11.524C3.89364 11.1796 3.61441 10.9004 3.27006 10.9004C2.92572 10.9004 2.64648 11.1796 2.64648 11.524V22.0734C2.64648 22.4178 2.92572 22.697 3.27006 22.697H9.5058C9.83373 22.697 10.1021 22.4436 10.1269 22.1219C10.1284 22.1074 10.1294 22.0914 10.1294 22.0734V16.0317C10.1294 15 10.9687 14.1607 12.0003 14.1607C13.032 14.1607 13.8713 15 13.8713 16.0317V22.0734C13.8713 22.0913 13.8723 22.107 13.8738 22.1214C13.8983 22.4433 14.1668 22.697 14.4949 22.697H20.7306C21.075 22.697 21.3542 22.4178 21.3542 22.0734V11.524C21.3542 11.1796 21.075 10.9004 20.7306 10.9004Z" fill="black"/>
</svg>
