<svg width="24" height="24" viewBox="0 0 24 24" fill="none" xmlns="http://www.w3.org/2000/svg">
<path fill-rule="evenodd" clip-rule="evenodd" d="M12.0004 8.49216C14.3219 8.49226 16.5546 9.42402 18.2371 11.0948C18.3638 11.2238 18.5663 11.2222 18.691 11.0912L19.9021 9.81448C19.9653 9.74803 20.0005 9.65802 20 9.56436C19.9995 9.47071 19.9632 9.38114 19.8993 9.31546C15.4834 4.89485 8.51678 4.89485 4.10086 9.31546C4.03689 9.38109 4.0006 9.47063 4.00001 9.56429C3.99942 9.65794 4.03458 9.74798 4.09772 9.81448L5.30914 11.0912C5.43384 11.2224 5.6365 11.224 5.76312 11.0948C7.44579 9.42391 9.67875 8.49215 12.0004 8.49216ZM12.0004 12.6459C13.2759 12.6458 14.5059 13.141 15.4514 14.0353C15.5792 14.1622 15.7807 14.1595 15.9053 14.0291L17.115 12.7524C17.1787 12.6854 17.2141 12.5946 17.2132 12.5002C17.2122 12.4058 17.1751 12.3157 17.1101 12.2501C14.231 9.45256 9.7723 9.45256 6.89317 12.2501C6.82813 12.3157 6.79102 12.4058 6.79017 12.5003C6.78932 12.5947 6.82479 12.6855 6.88863 12.7524L8.09795 14.0291C8.22261 14.1595 8.42405 14.1622 8.55193 14.0353C9.49677 13.1416 10.7258 12.6464 12.0004 12.6459ZM14.4236 15.4406C14.4255 15.5353 14.3898 15.6265 14.3251 15.6929L12.2327 17.8987C12.1713 17.9635 12.0877 18 12.0004 18C11.9132 18 11.8295 17.9635 11.7682 17.8987L9.67536 15.6929C9.61071 15.6265 9.57514 15.5352 9.57706 15.4405C9.57898 15.3459 9.61821 15.2562 9.68549 15.1928C11.0218 14.0121 12.979 14.0121 14.3154 15.1928C14.3826 15.2563 14.4218 15.3459 14.4236 15.4406Z" fill="black"/>
</svg>
