<svg width="24" height="24" viewBox="0 0 24 24" fill="none" xmlns="http://www.w3.org/2000/svg">
<path fill-rule="evenodd" clip-rule="evenodd" d="M19.9412 6H18.8824C18.2976 6 17.8235 6.50368 17.8235 7.125V16.875C17.8235 17.4963 18.2976 18 18.8824 18H19.9412C20.5259 18 21 17.4963 21 16.875V7.125C21 6.50368 20.5259 6 19.9412 6ZM13.9412 8.625H15C15.5848 8.625 16.0588 9.12868 16.0588 9.75V16.875C16.0588 17.4963 15.5848 18 15 18H13.9412C13.3564 18 12.8823 17.4963 12.8823 16.875V9.75C12.8823 9.12868 13.3564 8.625 13.9412 8.625ZM10.0588 11.25H9.00002C8.41525 11.25 7.9412 11.7537 7.9412 12.375V16.875C7.9412 17.4963 8.41525 18 9.00002 18H10.0588C10.6436 18 11.1177 17.4963 11.1177 16.875V12.375C11.1177 11.7537 10.6436 11.25 10.0588 11.25ZM5.11765 13.5H4.05882C3.47405 13.5 3 14.0037 3 14.625V16.875C3 17.4963 3.47405 18 4.05882 18H5.11765C5.70242 18 6.17647 17.4963 6.17647 16.875V14.625C6.17647 14.0037 5.70242 13.5 5.11765 13.5Z" fill="black"/>
</svg>
