<svg width="24" height="24" viewBox="0 0 24 24" fill="none" xmlns="http://www.w3.org/2000/svg">
<path opacity="0.4" fill-rule="evenodd" clip-rule="evenodd" d="M2.66667 7H19.0367C19.9572 7 20.7034 7.74619 20.7034 8.66667V15.3333C20.7034 16.2538 19.9572 17 19.0367 17H2.66666C1.74619 17 1 16.2538 1 15.3333V8.66667C1 7.74619 1.74619 7 2.66667 7ZM0 8.66667C0 7.19391 1.19391 6 2.66667 6H19.0367C20.5094 6 21.7034 7.19391 21.7034 8.66667V15.3333C21.7034 16.8061 20.5094 18 19.0367 18H2.66666C1.19391 18 0 16.8061 0 15.3333V8.66667ZM24 12C24 12.9245 23.4838 13.7589 22.6899 14.1176V9.88235C23.4838 10.2411 24 11.0755 24 12Z" fill="black"/>
<rect x="1.97266" y="8.11719" width="17.7573" height="7.76471" rx="1.33333" fill="black"/>
</svg>
