<svg width="15" height="16" viewBox="0 0 15 16" fill="none" xmlns="http://www.w3.org/2000/svg">
<path d="M13.7504 11.28V13.28C13.7511 13.4657 13.7154 13.6494 13.6457 13.8195C13.576 13.9897 13.4737 14.1424 13.3454 14.2679C13.2172 14.3934 13.0657 14.489 12.9009 14.5485C12.736 14.6079 12.5612 14.63 12.3879 14.6133C10.4647 14.3904 8.61726 13.6894 6.99414 12.5667C5.48403 11.5431 4.20372 10.1774 3.24414 8.56665C2.18787 6.82745 1.53054 4.84731 1.32539 2.78665C1.30977 2.60229 1.33031 2.41649 1.3857 2.24107C1.44109 2.06564 1.53012 1.90444 1.64711 1.76773C1.76411 1.63102 1.90651 1.52179 2.06525 1.447C2.224 1.37221 2.3956 1.33349 2.56914 1.33332H4.44414C4.74745 1.33013 5.04151 1.4447 5.27149 1.65567C5.50147 1.86664 5.65168 2.15961 5.69414 2.47998C5.77327 3.12003 5.92004 3.74847 6.13164 4.35332C6.21573 4.59193 6.23392 4.85126 6.18408 5.10057C6.13423 5.34988 6.01842 5.57872 5.85039 5.75998L5.05664 6.60665C5.94636 8.27568 7.24192 9.65761 8.80664 10.6067L9.60039 9.75998C9.77032 9.58074 9.98486 9.45722 10.2186 9.40405C10.4523 9.35088 10.6954 9.37029 10.9191 9.45998C11.4862 9.68568 12.0753 9.84224 12.6754 9.92665C12.979 9.97234 13.2563 10.1355 13.4545 10.385C13.6527 10.6345 13.758 10.953 13.7504 11.28Z" stroke="#373C3A" stroke-linecap="round" stroke-linejoin="round"/>
</svg>
