<svg width="40" height="40" viewBox="0 0 40 40" fill="none" xmlns="http://www.w3.org/2000/svg">
<path d="M19.0438 2.50535C16.2413 2.52755 13.7539 2.64421 11.6689 2.79344C6.90393 3.14881 3.12125 6.9518 2.79625 11.7192C2.40125 17.249 2.40125 22.8008 2.79625 28.3305C3.15125 33.0958 6.95386 36.877 11.7239 37.2026C17.2514 37.5975 22.801 37.5975 28.3285 37.2026C33.096 36.8493 36.8785 33.0458 37.206 28.2768C37.5985 22.7423 37.5985 17.1852 37.206 11.6509C36.8485 6.8911 33.0489 3.11697 28.2864 2.79344C24.9564 2.5554 21.8438 2.48315 19.0438 2.50535ZM25.7961 11.0845C26.7711 12.147 27.7514 13.2091 28.7264 14.2729C28.9839 14.5566 28.9839 14.9902 28.7264 15.2739C27.7489 16.3531 26.7662 17.433 25.7912 18.5161L24.6865 17.5151C25.284 16.8576 25.881 16.2014 26.4785 15.5425H15.541C13.891 15.5425 12.5686 16.8657 12.5686 18.5161V20.7427H11.0836V18.5161C11.0836 16.0625 13.0885 14.0581 15.541 14.0581H26.509C25.9065 13.4023 25.3012 12.7473 24.7012 12.0903L25.7961 11.0845ZM26.6836 19.2339H28.1734V21.4653C28.1734 23.9189 26.1685 25.9233 23.716 25.9233H13.5061C14.1086 26.5894 14.709 27.2563 15.3115 27.9204L14.2135 28.9165C13.2385 27.8348 12.2589 26.7578 11.2789 25.6792C11.0189 25.3955 11.0189 24.9619 11.2789 24.6782C12.2539 23.6151 13.2287 22.5492 14.2037 21.4848L15.3011 22.4907C14.7061 23.1391 14.1163 23.7862 13.5213 24.4341H23.716C25.366 24.4341 26.6836 23.1157 26.6836 21.4653V19.2339Z" fill="#A79AE4"/>
</svg>
