<svg width="32" height="32" viewBox="0 0 32 32" fill="none" xmlns="http://www.w3.org/2000/svg">
<path fill-rule="evenodd" clip-rule="evenodd" d="M19.946 12.338C18.8828 9.77105 16.1545 8.31253 13.4296 8.85445C10.7046 9.39638 8.74188 11.7878 8.74186 14.5662C8.74185 16.1104 9.35519 17.5914 10.447 18.6836C12.4114 20.6484 15.4902 20.9521 17.8004 19.4087C20.1107 17.8654 21.009 14.9049 19.946 12.338ZM13.0898 7.14606C16.6299 6.44205 20.1743 8.33679 21.5552 11.6715C22.9363 15.0063 21.7693 18.8521 18.768 20.8571C15.7667 22.8621 11.7671 22.4676 9.21518 19.9151C7.79678 18.4964 6.99998 16.5723 7 14.5662C7.00003 10.9568 9.54977 7.85007 13.0898 7.14606Z" fill="#373C3A" stroke="#EBEFF4" stroke-width="0.3"/>
<path fill-rule="evenodd" clip-rule="evenodd" d="M20.6438 20.6439C20.9839 20.3038 21.5354 20.3038 21.8755 20.6439L24.7449 23.5133C25.085 23.8534 25.085 24.4049 24.7449 24.745C24.4048 25.0852 23.8533 25.0852 23.5132 24.745L20.6438 21.8756C20.3036 21.5355 20.3036 20.984 20.6438 20.6439Z" fill="#373C3A"/>
</svg>
