<svg width="393" height="853" viewBox="0 0 393 853" fill="none" xmlns="http://www.w3.org/2000/svg">
<g clip-path="url(#clip0_2370_6212)">
<rect width="393" height="853" fill="#2B8A83"/>
<g opacity="0.5">
<path d="M307.732 239.112L228.186 192.051L229.899 189.115L210.809 173.97L213.688 169.037L211.562 167.8L208.683 172.733L205.4 170.823L209.76 163.352L203.194 159.532L201.712 162.07L195.146 158.25L202.393 145.834L-36.6531 6.7783L-47.8909 26.0304L-51.4938 23.9346L-40.2556 4.68251L-54.9477 -3.86377L-83.9242 45.777L-69.2325 54.3234L-57.9945 35.0712L-54.3919 37.167L-65.6296 56.4192L173.417 195.475L180.665 183.058L187.231 186.878L185.749 189.417L192.316 193.237L196.677 185.765L199.961 187.675L197.081 192.608L199.208 193.845L202.087 188.912L224.698 198.025L226.446 195.032L306.679 240.917C307.686 241.493 308.726 241.559 309.014 241.066C309.301 240.573 308.731 239.702 307.732 239.112Z" fill="#1C324A"/>
<path d="M-80.7465 41.6776L-53.8773 -9.13086L190.792 119.812L163.923 170.62L-80.7465 41.6776Z" fill="#8CC9D1"/>
<path d="M-67.7017 32.3012L-50.7648 0.274414L182.858 123.395L165.921 155.422L-67.7017 32.3012Z" fill="#D5ECEF"/>
<path d="M-80.7465 41.6771L-77.535 35.604L167.134 164.546L163.923 170.62L-80.7465 41.6771Z" fill="#71B7C3"/>
<path d="M147.375 154.133L167.821 115.471L182.858 123.395L162.412 162.058L147.375 154.133Z" fill="#4C7F98"/>
<path d="M151.832 156.482L172.278 117.82L178.401 121.047L157.955 159.709L151.832 156.482Z" fill="#29486E"/>
<path d="M-64.0016 25.3052L-57.9737 13.9067L160.612 129.103L154.584 140.501L-64.0016 25.3052Z" fill="white"/>
<path d="M177.364 161.453L190.792 136.062L184.071 132.52L170.643 157.911L177.364 161.453Z" fill="#8CC9D1"/>
<path d="M182.711 167.593L198.887 137.005L192.166 133.463L175.99 164.051L182.711 167.593Z" fill="#5E9AAE"/>
<path d="M189.622 167.913L203.05 142.521L200.874 141.375L187.446 166.766L189.622 167.913Z" fill="#5E9AAE"/>
<path d="M190.116 161.717L198.204 146.423L194.843 144.652L186.755 159.946L190.116 161.717Z" fill="#29486E"/>
<path d="M177.334 153.385L187.462 142.358L180.741 138.816L173.973 151.614L177.334 153.385Z" fill="#D5ECEF"/>
<path d="M185.057 163.158L196.542 141.441L189.821 137.898L178.336 159.616L185.057 163.158Z" fill="#71B7C3"/>
<path d="M191.569 164.231L201.103 146.203L198.927 145.056L189.393 163.084L191.569 164.231Z" fill="#71B7C3"/>
<path d="M192.168 157.838L196.152 150.303L192.792 148.532L188.807 156.067L192.168 157.838Z" fill="#4C7F98"/>
<path d="M215.266 171.024L220.089 161.904L200.38 147.57L192.292 162.864L215.266 171.024Z" fill="#5E9AAE"/>
<path d="M216.501 168.688L218.853 164.241L198.328 151.45L194.344 158.985L216.501 168.688Z" fill="#71B7C3"/>
<path d="M301.446 210.611C301.713 210.106 301.106 209.26 300.084 208.711L218.546 164.97L216.931 168.023L299.107 210.559C300.137 211.092 301.179 211.115 301.446 210.611Z" fill="#8CC9D1"/>
<path d="M301.446 210.611C301.576 210.365 301.278 209.953 300.78 209.688L218.136 165.745L217.341 167.249L300.307 210.583C300.807 210.844 301.316 210.857 301.446 210.611Z" fill="#D5ECEF"/>
<path d="M148.384 116.061L154.909 103.722L157.969 105.335L151.444 117.674L148.384 116.061Z" fill="white"/>
<path d="M136.69 102.01L139.953 95.8408L143.013 97.4536L139.751 103.623L136.69 102.01Z" fill="white"/>
<path d="M118.472 100.297L124.997 87.9585L128.057 89.5714L121.532 101.91L118.472 100.297Z" fill="white"/>
<path d="M103.516 92.4153L110.041 80.0767L113.101 81.6894L106.576 94.028L103.516 92.4153Z" fill="white"/>
<path d="M91.8219 78.3637L95.0844 72.1943L98.1448 73.8072L94.8823 79.9765L91.8219 78.3637Z" fill="white"/>
<path d="M73.6033 76.6511L80.1283 64.3125L83.1886 65.9253L76.6635 78.2639L73.6033 76.6511Z" fill="white"/>
<path d="M58.647 68.7688L65.172 56.4302L68.2324 58.0429L61.7073 70.3816L58.647 68.7688Z" fill="white"/>
<path d="M46.9535 54.7177L50.216 48.5483L53.2764 50.1612L50.0137 56.3305L46.9535 54.7177Z" fill="white"/>
<path d="M28.7348 53.0046L35.2599 40.666L38.3202 42.2788L31.7951 54.6174L28.7348 53.0046Z" fill="white"/>
<path d="M13.7787 45.1228L20.3038 32.7842L23.3639 34.3971L16.839 46.7357L13.7787 45.1228Z" fill="white"/>
<path d="M2.08508 31.0722L5.34762 24.9028L8.40797 26.5156L5.14544 32.685L2.08508 31.0722Z" fill="white"/>
<path d="M14.335 641.504L12.1296 639.75C10.5107 638.462 9.92206 636.345 10.7235 634.692L16.4301 622.923C17.4901 620.737 20.4763 620.286 22.6177 621.989L36.7359 633.215C38.8775 634.918 39.1047 637.924 37.2069 639.445L26.9921 647.629C25.5577 648.778 23.3587 648.679 21.7394 647.391L19.8591 645.896C11.5375 660.051 8.2605 676.442 10.5958 693.031C13.4312 713.169 24.1301 730.755 40.7227 742.552L109.824 791.679C111.942 790.758 114.475 790.931 116.494 792.367C158.923 822.533 217.584 814.302 250.04 773.628C282.496 732.955 277.417 674.037 238.477 639.497C236.626 637.856 235.896 635.429 236.318 633.165L172.897 576.911C157.67 563.404 138.108 556.926 117.811 558.67C101.092 560.106 85.82 566.96 73.8606 578.222L75.741 579.717C77.3599 581.004 77.9485 583.122 77.1471 584.775L71.4404 596.544C70.3799 598.73 67.3943 599.181 65.2527 597.478L51.1346 586.251C48.993 584.548 48.7659 581.542 50.6637 580.022L60.8785 571.838C62.3129 570.688 64.5119 570.788 66.131 572.075L68.3365 573.829C81.5417 561.077 98.5544 553.317 117.212 551.714C119.661 551.503 122.1 551.402 124.525 551.409C144.102 551.462 162.703 558.53 177.542 571.692L240.961 627.944C243.166 627.256 245.664 627.698 247.516 629.341C289.713 666.77 296.993 729.332 265.757 775.215C285.438 784.531 340.786 811.505 399.71 847.217C397.926 837.986 396.165 828.542 394.424 818.878C380.897 743.784 371.223 669.539 365.278 618.166C350.102 618.263 334.795 613.378 322.001 603.205C292.271 579.563 287.368 536.339 311.05 506.66C334.732 476.982 378.032 472.088 407.762 495.729C437.492 519.37 442.394 562.594 418.712 592.273C408.275 605.352 394.029 613.615 378.813 616.746C384.735 667.906 394.368 741.816 407.834 816.556C410.341 830.474 412.894 843.942 415.487 856.943C460.952 885.455 498.21 913.155 526.242 939.287C562.362 972.959 583.411 1004.4 588.803 1032.73C593.045 1055.01 587.836 1075.47 573.309 1093.67C571.362 1096.11 569.246 1098.51 566.965 1100.87C548.79 1119.65 530.45 1125.96 512.458 1119.61C486.517 1110.45 463.262 1075.24 441.364 1011.97C427.947 973.208 415.184 924.033 403.299 865.361C337.975 824.847 274.64 794.39 257.228 786.219C219.673 828.943 155.448 836.742 108.598 803.434C106.58 801.999 105.59 799.666 105.769 797.367L36.6661 748.239C18.4937 735.319 6.77545 716.057 3.67035 694.003C1.06403 675.492 4.83673 657.203 14.335 641.504ZM454.239 1007.57C463.992 1035.74 474.159 1058.41 484.458 1074.95C495.245 1092.27 506.192 1102.98 516.997 1106.8C529.692 1111.28 542.834 1106.25 557.176 1091.43C559.183 1089.36 561.033 1087.26 562.728 1085.14C574.772 1070.04 578.932 1053.65 575.433 1035.27C566.994 990.925 513.095 935.816 419.273 875.45C430.279 927.915 441.992 972.19 454.239 1007.57Z" fill="#1C324A"/>
<path d="M324.35 581.561C355.542 603.244 398.436 595.578 420.156 564.439C441.876 533.301 434.197 490.481 403.004 468.799C371.812 447.117 328.918 454.782 307.198 485.921C285.478 517.059 293.157 559.879 324.35 581.561Z" fill="#3A6383"/>
<path d="M326.657 578.253C356.019 598.663 396.396 591.447 416.842 562.136C437.287 532.825 430.059 492.517 400.697 472.107C371.335 451.697 330.958 458.913 310.512 488.224C290.067 517.536 297.295 557.843 326.657 578.253Z" fill="#4C7F98"/>
<path d="M330.602 572.597C356.835 590.832 392.909 584.385 411.176 558.198C429.442 532.01 422.984 495.998 396.751 477.763C370.519 459.528 334.444 465.975 316.178 492.163C297.911 518.35 304.369 554.362 330.602 572.597Z" fill="#71B7C3"/>
<path d="M363.678 525.182L421.262 519.351C419.61 503.173 411.166 487.785 396.752 477.765L363.678 525.182Z" fill="#8CC9D1"/>
<path d="M330.603 572.599L363.678 525.182L306.093 531.013C307.742 547.189 316.186 562.577 330.603 572.599Z" fill="#8CC9D1"/>
<path d="M123.944 542.559C121.523 542.708 119.097 542.966 116.666 543.333C94.607 546.667 75.438 558.568 62.6895 576.845C61.5858 578.427 61.9762 580.603 63.5608 581.704C65.145 582.806 67.3243 582.417 68.4285 580.835C80.0689 564.146 97.5716 553.28 117.712 550.236C137.854 547.192 157.794 552.4 173.86 564.901L245.372 620.54C287.844 653.585 297.01 714.027 266.239 758.141C235.469 802.256 175.503 814.643 129.721 786.341L52.6376 738.689C35.3191 727.983 23.5084 711.12 19.381 691.207C15.2535 671.294 19.391 651.137 31.031 634.449C32.1348 632.867 31.7444 630.691 30.1597 629.59C28.575 628.488 26.3953 628.877 25.292 630.46C12.5435 648.736 8.01202 670.812 12.5322 692.622C17.0529 714.431 29.9884 732.899 48.9559 744.625L126.039 792.277C174.979 822.531 239.084 809.29 271.978 762.131C304.873 714.972 295.074 650.359 249.671 615.033L178.159 559.394C162.502 547.213 143.484 541.354 123.944 542.559Z" fill="#8CC9D1"/>
<path d="M124.06 544.52C121.699 544.665 119.332 544.917 116.96 545.275C95.4403 548.527 76.7401 560.138 64.3035 577.968C63.8208 578.66 63.9912 579.612 64.6844 580.094C65.3771 580.575 66.3314 580.406 66.8141 579.713C78.7661 562.578 96.7374 551.421 117.418 548.295C138.096 545.17 158.572 550.517 175.069 563.353L246.581 618.992C289.877 652.678 299.221 714.293 267.853 759.264C236.484 804.235 175.354 816.863 128.685 788.011L51.6019 740.359C33.8195 729.366 21.6927 712.052 17.4544 691.605C13.2166 671.159 17.4646 650.462 29.4167 633.328C29.8994 632.635 29.7289 631.684 29.0358 631.202C28.3417 630.72 27.3883 630.89 26.9059 631.582C14.4688 649.412 10.0481 670.949 14.4584 692.224C18.8683 713.5 31.4872 731.517 49.9911 742.956L127.074 790.608C175.127 820.314 238.066 807.312 270.364 761.009C302.661 714.707 293.041 651.267 248.461 616.583L176.949 560.944C161.676 549.06 143.123 543.345 124.06 544.52Z" fill="white"/>
<path d="M361.591 563.544C345.456 563.544 332.376 550.487 332.376 534.38C332.376 518.273 345.456 505.215 361.591 505.215C377.725 505.215 390.805 518.273 390.805 534.38C390.805 550.487 377.725 563.544 361.591 563.544Z" fill="#1C324A"/>
<path d="M350.146 592.555C352.145 592.957 354.156 593.265 356.171 593.484C357.175 593.592 368.433 548.062 368.433 548.062L359.051 547.521L350.146 592.555Z" fill="#1C324A"/>
<path d="M124.297 795.085C121.102 793.11 120.115 788.923 122.094 785.733C124.075 782.537 128.267 781.559 131.462 783.534C175.749 810.912 233.758 798.929 263.524 756.255C293.291 713.58 284.424 655.112 243.338 623.145C240.373 620.839 239.852 616.555 242.154 613.611C244.465 610.652 248.74 610.123 251.705 612.429C296.227 647.069 307.524 709.034 279.311 756.829C299.552 764.861 356.524 788.224 417.627 820.076C415.253 810.979 412.886 801.668 410.526 792.135C377.526 658.861 357.153 527.524 356.951 526.213C356.38 522.506 358.928 519.037 362.643 518.466C366.358 517.896 369.832 520.44 370.403 524.148C370.605 525.454 390.899 656.266 423.758 788.956C427.158 802.685 430.573 815.961 433.999 828.768C481.207 854.301 520.174 879.55 549.833 903.827C588.048 935.109 611.08 965.129 618.288 993.055C623.958 1015.02 620.078 1035.77 606.754 1054.87C604.969 1057.43 603.012 1059.96 600.888 1062.46C583.961 1082.37 566.066 1089.84 547.702 1084.66C521.224 1077.18 495.747 1043.54 469.816 981.812C453.929 943.992 438.022 895.738 422.379 837.952C354.579 801.719 289.412 775.393 271.509 768.358C236.786 813.406 173.197 825.315 124.297 795.085ZM482.38 976.59C493.929 1004.08 505.537 1026.05 516.88 1041.89C528.762 1058.48 540.377 1068.47 551.405 1071.58C564.363 1075.24 577.154 1069.38 590.51 1053.67C592.38 1051.47 594.091 1049.26 595.645 1047.03C606.691 1031.19 609.786 1014.57 605.109 996.448C593.829 952.74 536.489 901.207 438.97 846.994C453.336 898.643 467.879 942.074 482.38 976.59Z" fill="#4C7F98"/>
<path d="M558.943 1083.54C572.522 1083.54 585.939 1075.86 598.82 1060.71C600.878 1058.29 602.799 1055.8 604.529 1053.32C617.371 1034.91 621.117 1014.86 615.662 993.731C608.601 966.374 585.874 936.831 548.113 905.921C518.593 881.757 479.765 856.6 432.707 831.148L431.68 830.593L431.379 829.466C427.963 816.696 424.513 803.286 421.125 789.606C388.358 657.29 367.925 525.872 367.722 524.56C367.418 522.584 365.682 521.094 363.685 521.094C363.476 521.094 363.264 521.11 363.054 521.142C361.974 521.308 361.023 521.884 360.377 522.764C359.73 523.645 359.466 524.723 359.632 525.801C359.833 527.112 380.195 658.359 413.159 791.486C415.507 800.969 417.893 810.358 420.252 819.393L421.794 825.302L416.372 822.476C355.85 790.927 299.658 767.817 278.309 759.345L275.367 758.177L276.974 755.454C290.333 732.824 295.001 706.097 290.118 680.197C285.211 654.164 270.976 630.856 250.037 614.564C249.311 613.999 248.443 613.701 247.526 613.701C246.253 613.701 245.075 614.275 244.293 615.276C243.623 616.132 243.329 617.201 243.463 618.286C243.597 619.373 244.145 620.34 245.005 621.009C287.228 653.861 296.34 713.947 265.75 757.802C246.92 784.798 215.983 800.914 182.995 800.911C164.299 800.91 145.986 795.697 130.034 785.836C129.384 785.434 128.64 785.221 127.882 785.221C126.454 785.221 125.152 785.945 124.401 787.158C123.824 788.087 123.645 789.183 123.895 790.245C124.146 791.307 124.795 792.209 125.725 792.783C142.974 803.447 162.771 809.084 182.973 809.084H182.983C199.36 809.082 215.807 805.324 230.546 798.216C245.887 790.818 258.946 780.216 269.359 766.707L270.603 765.093L272.502 765.839C290.833 773.042 355.912 799.36 423.659 835.565L424.691 836.117L424.997 837.246C440.593 894.858 456.514 943.145 472.317 980.765C485.135 1011.28 498.054 1035.23 510.717 1051.95C523.153 1068.37 535.844 1078.5 548.439 1082.05C551.948 1083.04 555.482 1083.54 558.943 1083.54ZM440.29 844.629C489.017 871.717 528.013 898.303 556.194 923.649C584.648 949.238 601.988 973.504 607.736 995.773C612.636 1014.76 609.409 1032.03 597.871 1048.58C596.279 1050.86 594.498 1053.16 592.578 1055.42C581.183 1068.83 570.146 1075.34 558.836 1075.34C556.128 1075.34 553.38 1074.95 550.667 1074.19C539.032 1070.9 526.923 1060.57 514.674 1043.46C503.212 1027.46 491.505 1005.31 479.88 977.638C465.377 943.12 450.734 899.408 436.357 847.718L434.621 841.477L440.29 844.629Z" fill="#5E9AAE"/>
<path d="M363.677 554.345C347.542 554.345 334.462 541.287 334.462 525.18C334.462 509.073 347.542 496.016 363.677 496.016C379.812 496.016 392.892 509.073 392.892 525.18C392.892 541.287 379.812 554.345 363.677 554.345Z" fill="#D5ECEF"/>
<path d="M363.677 525.182L350.857 505.86C345.412 509.465 341.514 515.33 340.641 522.308L363.677 525.182Z" fill="white"/>
<path d="M386.714 528.056L363.678 525.182L376.498 544.504C381.943 540.901 385.841 535.036 386.714 528.056Z" fill="white"/>
<path d="M73.879 591.01L78.8152 578.899C79.5086 577.198 78.7846 575.123 77.0858 573.942L67.0033 566.934C65.3046 565.753 63.1038 565.795 61.7461 567.034L52.0801 575.858C50.2843 577.497 50.705 580.482 52.952 582.044L67.7643 592.34C70.0113 593.902 72.9619 593.26 73.879 591.01Z" fill="#3A6383"/>
<path d="M71.0168 589.021L76.5741 577.342C77.3546 575.701 77.0146 573.893 75.7619 573.022L68.3269 567.854C67.0743 566.983 65.2575 567.293 63.987 568.592L54.9421 577.847C53.2617 579.567 53.2397 582.244 54.8967 583.396L65.8194 590.989C67.4764 592.14 69.9844 591.191 71.0168 589.021Z" fill="#5E9AAE"/>
<path d="M68.1316 587.016L74.3148 575.771C75.1833 574.192 75.2305 572.653 74.4274 572.095L69.6617 568.782C68.8588 568.224 67.4291 568.802 66.2466 570.163L57.8277 579.853C56.2636 581.654 55.7954 584.021 56.8576 584.759L63.8589 589.626C64.9209 590.364 66.9827 589.105 68.1316 587.016Z" fill="#71B7C3"/>
<path d="M42.4824 636.022L32.8164 644.846C31.4587 646.085 29.258 646.127 27.5591 644.946L17.4766 637.938C15.7778 636.757 15.054 634.682 15.7473 632.98L20.6835 620.87C21.6005 618.619 24.5512 617.978 26.7982 619.54L41.6104 629.836C43.8574 631.398 44.2782 634.383 42.4824 636.022Z" fill="#3A6383"/>
<path d="M39.6202 634.033L30.5751 643.288C29.3048 644.588 27.4879 644.897 26.2352 644.026L18.8004 638.858C17.5476 637.987 17.2077 636.179 17.9882 634.538L23.5455 622.859C24.5778 620.689 27.0859 619.74 28.7428 620.891L39.6656 628.484C41.3225 629.636 41.3006 632.313 39.6202 634.033Z" fill="#5E9AAE"/>
<path d="M36.7347 632.027L28.3159 641.717C27.1333 643.078 25.7037 643.656 24.9008 643.098L20.1349 639.785C19.332 639.227 19.3792 637.688 20.2478 636.109L26.431 624.865C27.5799 622.776 29.6416 621.516 30.7036 622.254L37.705 627.121C38.767 627.859 38.2989 630.227 36.7347 632.027Z" fill="#71B7C3"/>
<path d="M58.4693 143.649L57.845 142.786C52.75 135.744 42.911 134.165 35.869 139.26L13.4887 155.453C6.44675 160.548 4.86841 170.387 9.96338 177.429L10.5877 178.292C15.6827 185.334 25.5216 186.912 32.5636 181.817L54.9439 165.625C61.9859 160.53 63.5642 150.691 58.4693 143.649Z" fill="#1C324A"/>
<path d="M47.2846 134.689L47.9088 135.552C53.0004 142.589 51.4208 152.436 44.3835 157.528L22.0042 173.72C14.9665 178.812 5.11862 177.232 0.0266226 170.194L-0.597528 169.331C-5.68881 162.294 -4.10925 152.448 2.92761 147.357L25.3086 131.164C32.3459 126.072 42.193 127.652 47.2846 134.689Z" fill="#5E9AAE"/>
<path d="M1.79059 168.262C-2.70095 162.054 -1.30963 153.381 4.89826 148.889L26.1481 133.514C32.356 129.023 41.0296 130.414 45.5211 136.622C50.0125 142.83 48.6212 151.504 42.4133 155.995L21.1635 171.37C14.9556 175.861 6.28212 174.47 1.79059 168.262Z" fill="#71B7C3"/>
<path d="M4.43711 166.347C0.813587 161.339 1.93612 154.341 6.94431 150.718L27.2457 136.029C32.2539 132.406 39.2513 133.528 42.8748 138.536C46.4983 143.545 45.3758 150.542 40.3676 154.166L20.0662 168.854C15.058 172.477 8.06063 171.355 4.43711 166.347Z" fill="#AEDAE1"/>
<path d="M33.3623 162.544L17.0971 140.063L13.9498 142.34L30.215 164.821L33.3623 162.544Z" fill="#71B7C3"/>
<path d="M33.3623 162.544L17.0971 140.063L15.5235 141.202L31.7887 163.682L33.3623 162.544Z" fill="#5E9AAE"/>
<path d="M114.483 488.682L114.669 489.73C116.193 498.281 110.487 506.46 101.936 507.984L74.7377 512.829C66.1873 514.352 58.009 508.647 56.4859 500.096L56.2991 499.048C54.7756 490.495 60.4823 482.315 69.0349 480.791L96.2278 475.947C104.78 474.424 112.959 480.13 114.483 488.682Z" fill="#1C324A"/>
<path d="M98.0016 481.865L98.1882 482.913C99.7105 491.466 94.0027 499.645 85.4501 501.168L58.2564 506.008C49.7043 507.53 41.5253 501.822 40.0032 493.27L39.8166 492.222C38.2946 483.671 44.0016 475.492 52.5529 473.97L79.7516 469.13C88.3022 467.608 96.4797 473.314 98.0016 481.865Z" fill="#5E9AAE"/>
<path d="M42.4324 492.301C41.089 484.757 46.1151 477.553 53.6587 476.209L79.4808 471.61C87.0244 470.267 94.2289 475.293 95.5725 482.837C96.916 490.38 91.8898 497.585 84.3462 498.928L58.5241 503.527C50.9805 504.871 43.776 499.845 42.4324 492.301Z" fill="#71B7C3"/>
<path d="M45.6483 491.729C44.5644 485.643 48.6193 479.831 54.705 478.747L79.3748 474.353C85.4605 473.269 91.2727 477.324 92.3566 483.41C93.4405 489.496 89.3857 495.308 83.2999 496.392L58.6302 500.785C52.5444 501.869 46.7322 497.814 45.6483 491.729Z" fill="#AEDAE1"/>
<path d="M73.3477 500.888L68.4823 473.57L64.6578 474.251L69.5232 501.569L73.3477 500.888Z" fill="#71B7C3"/>
<path d="M73.3478 500.888L68.4824 473.57L66.5702 473.91L71.4356 501.228L73.3478 500.888Z" fill="#5E9AAE"/>
<path d="M189.995 226.251L191.046 226.42C199.622 227.795 205.468 235.874 204.093 244.449L199.721 271.724C198.345 280.302 190.265 286.149 181.688 284.774L180.636 284.605C172.061 283.23 166.214 275.152 167.589 266.576L171.962 239.301C173.337 230.723 181.418 224.876 189.995 226.251Z" fill="#1C324A"/>
<path d="M177.952 220.235L179.003 220.403C187.579 221.778 193.425 229.857 192.05 238.433L187.677 265.71C186.302 274.286 178.223 280.133 169.647 278.758L168.595 278.589C160.018 277.214 154.171 269.134 155.547 260.557L159.919 233.284C161.294 224.707 169.374 218.86 177.952 220.235Z" fill="#5E9AAE"/>
<path d="M169.523 276.143C161.958 274.93 156.808 267.813 158.022 260.247L162.177 234.35C163.39 226.784 170.507 221.635 178.073 222.849C185.638 224.062 190.788 231.179 189.574 238.745L185.42 264.642C184.206 272.208 177.089 277.357 169.523 276.143Z" fill="#71B7C3"/>
<path d="M170.041 272.919C163.937 271.939 159.783 266.198 160.762 260.094L164.731 235.353C165.71 229.249 171.452 225.095 177.555 226.074C183.659 227.053 187.813 232.795 186.834 238.898L182.865 263.64C181.886 269.743 176.144 273.898 170.041 272.919Z" fill="#AEDAE1"/>
<path d="M187.804 249.776L160.407 245.381L159.791 249.217L187.189 253.612L187.804 249.776Z" fill="#71B7C3"/>
<path d="M187.804 249.776L160.407 245.381L160.099 247.299L187.497 251.694L187.804 249.776Z" fill="#5E9AAE"/>
<path d="M1.15402 408.02C9.48324 408.02 16.2354 401.268 16.2354 392.938C16.2354 384.609 9.48324 377.857 1.15402 377.857C-7.17519 377.857 -13.9274 384.609 -13.9274 392.938C-13.9274 401.268 -7.17519 408.02 1.15402 408.02Z" fill="#1C324A"/>
<path d="M-1.32001 396.54C-9.6241 397.188 -16.8813 390.982 -17.5295 382.678C-18.1777 374.374 -11.9714 367.117 -3.6675 366.468C4.63659 365.82 11.8938 372.026 12.542 380.33C13.1902 388.634 6.98393 395.892 -1.32001 396.54Z" fill="#B46839"/>
<path d="M4.24231 392.985C10.5831 389.265 12.7074 381.109 8.9871 374.768C5.26682 368.428 -2.88925 366.303 -9.23 370.024C-15.5707 373.744 -17.6951 381.9 -13.9748 388.241C-10.2545 394.581 -2.09844 396.706 4.24231 392.985Z" fill="#D49542"/>
<path d="M-1.60386 392.904C-7.89935 393.395 -13.4013 388.69 -13.8927 382.394C-14.3842 376.099 -9.67905 370.597 -3.38342 370.106C2.91208 369.614 8.414 374.319 8.90543 380.615C9.39687 386.91 4.69177 392.412 -1.60386 392.904Z" fill="#E5AB47"/>
<path d="M85.8324 18.9295C86.6665 10.6421 80.6245 3.2476 72.337 2.41347C64.0496 1.57933 56.6551 7.62141 55.821 15.9088C54.9869 24.1963 61.029 31.5908 69.3164 32.4249C77.6038 33.259 84.9983 27.2169 85.8324 18.9295Z" fill="#1C324A"/>
<path d="M78.473 15.9787C83.9927 9.74102 83.4106 0.209767 77.1729 -5.3099C70.9352 -10.8296 61.4039 -10.2474 55.8842 -4.00972C50.3646 2.228 50.9467 11.7592 57.1844 17.2789C63.4221 22.7986 72.9534 22.2165 78.473 15.9787Z" fill="#B46839"/>
<path d="M68.2145 19.2556C60.8852 19.8277 54.4798 14.3499 53.9077 7.02055C53.3357 -0.30866 58.8134 -6.714 66.1427 -7.28612C73.4719 -7.85824 79.8773 -2.38045 80.4494 4.94877C81.0215 12.2781 75.5437 18.6835 68.2145 19.2556Z" fill="#D49542"/>
<path d="M68.0685 17.3842C61.7729 17.8756 56.2709 13.1704 55.7795 6.87489C55.2881 0.579259 59.9933 -4.92254 66.2888 -5.41397C72.5845 -5.90541 78.0864 -1.2003 78.5777 5.09533C79.0691 11.3908 74.364 16.8928 68.0685 17.3842Z" fill="#E5AB47"/>
<path d="M69.1023 20.4096L66.8406 -8.56348L64.9885 -8.4189L67.2501 20.5542L69.1023 20.4096Z" fill="#B46839"/>
<path d="M68.0806 19.2645C67.7696 19.287 67.4594 19.2975 67.1517 19.2957L65.0865 -7.15959C65.3903 -7.20909 65.6984 -7.24678 66.0092 -7.27295L68.0806 19.2645Z" fill="#D49542"/>
<path d="M256.902 282.351C265.232 282.351 271.984 275.599 271.984 267.269C271.984 258.94 265.232 252.188 256.902 252.188C248.573 252.188 241.821 258.94 241.821 267.269C241.821 275.599 248.573 282.351 256.902 282.351Z" fill="#1C324A"/>
<path d="M268.205 257.82C269.301 249.563 263.497 241.981 255.24 240.885C246.983 239.788 239.401 245.593 238.304 253.85C237.208 262.106 243.013 269.689 251.269 270.785C259.526 271.881 267.108 266.077 268.205 257.82Z" fill="#B46839"/>
<path d="M253.596 269.142C260.945 268.953 266.75 262.843 266.561 255.494C266.373 248.144 260.263 242.34 252.913 242.528C245.564 242.716 239.759 248.827 239.948 256.176C240.136 263.525 246.247 269.33 253.596 269.142Z" fill="#D49542"/>
<path d="M254.144 267.234C247.849 267.725 242.347 263.02 241.855 256.725C241.364 250.429 246.069 244.927 252.365 244.436C258.66 243.944 264.162 248.649 264.654 254.945C265.145 261.24 260.44 266.742 254.144 267.234Z" fill="#E5AB47"/>
<path d="M242.43 265.729L264.984 247.403L263.813 245.961L241.258 264.287L242.43 265.729Z" fill="#B46839"/>
<path d="M254.157 269.115C253.846 269.137 253.535 269.148 253.228 269.146L251.162 242.691C251.466 242.641 251.774 242.603 252.085 242.577L254.157 269.115Z" fill="#D49542"/>
<path d="M242.375 531.523C250.633 530.435 256.446 522.859 255.358 514.601C254.27 506.343 246.694 500.531 238.436 501.619C230.178 502.706 224.365 510.283 225.453 518.541C226.541 526.799 234.117 532.611 242.375 531.523Z" fill="#1C324A"/>
<path d="M225.115 517.666C218.681 512.376 217.753 502.872 223.043 496.438C228.332 490.004 237.836 489.076 244.27 494.365C250.704 499.655 251.632 509.159 246.343 515.593C241.053 522.027 231.549 522.955 225.115 517.666Z" fill="#B46839"/>
<path d="M226.24 516.298C220.561 511.63 219.742 503.241 224.41 497.562C229.079 491.884 237.467 491.065 243.146 495.733C248.825 500.402 249.644 508.79 244.975 514.469C240.307 520.148 231.919 520.967 226.24 516.298Z" fill="#D49542"/>
<path d="M227.432 514.848C222.554 510.838 221.85 503.633 225.86 498.755C229.871 493.877 237.076 493.173 241.954 497.183C246.832 501.193 247.535 508.399 243.525 513.277C239.515 518.155 232.31 518.858 227.432 514.848Z" fill="#E5AB47"/>
<path d="M220.032 505.642L248.991 508.07L249.147 506.219L220.187 503.791L220.032 505.642Z" fill="#B46839"/>
<path d="M226.137 516.212C225.897 516.012 225.666 515.805 225.446 515.59L242.297 495.092C242.551 495.267 242.799 495.453 243.041 495.65L226.137 516.212Z" fill="#D49542"/>
</g>
<path d="M82.64 440.5H77.04L64.36 421.34V440.5H58.76V412.54H64.36L77.04 431.74V412.54H82.64V440.5ZM108.814 428.94C108.814 429.74 108.761 430.46 108.654 431.1H92.4541C92.5874 432.7 93.1474 433.953 94.1341 434.86C95.1207 435.767 96.3341 436.22 97.7741 436.22C99.8541 436.22 101.334 435.327 102.214 433.54H108.254C107.614 435.673 106.387 437.433 104.574 438.82C102.761 440.18 100.534 440.86 97.8941 440.86C95.7607 440.86 93.8407 440.393 92.1341 439.46C90.4541 438.5 89.1341 437.153 88.1741 435.42C87.2407 433.687 86.7741 431.687 86.7741 429.42C86.7741 427.127 87.2407 425.113 88.1741 423.38C89.1074 421.647 90.4141 420.313 92.0941 419.38C93.7741 418.447 95.7074 417.98 97.8941 417.98C100.001 417.98 101.881 418.433 103.534 419.34C105.214 420.247 106.507 421.54 107.414 423.22C108.347 424.873 108.814 426.78 108.814 428.94ZM103.014 427.34C102.987 425.9 102.467 424.753 101.454 423.9C100.441 423.02 99.2007 422.58 97.7341 422.58C96.3474 422.58 95.1741 423.007 94.2141 423.86C93.2807 424.687 92.7074 425.847 92.4941 427.34H103.014ZM133.542 428.94C133.542 429.74 133.488 430.46 133.382 431.1H117.182C117.315 432.7 117.875 433.953 118.862 434.86C119.848 435.767 121.062 436.22 122.502 436.22C124.582 436.22 126.062 435.327 126.942 433.54H132.982C132.342 435.673 131.115 437.433 129.302 438.82C127.488 440.18 125.262 440.86 122.622 440.86C120.488 440.86 118.568 440.393 116.862 439.46C115.182 438.5 113.862 437.153 112.902 435.42C111.968 433.687 111.502 431.687 111.502 429.42C111.502 427.127 111.968 425.113 112.902 423.38C113.835 421.647 115.142 420.313 116.822 419.38C118.502 418.447 120.435 417.98 122.622 417.98C124.728 417.98 126.608 418.433 128.262 419.34C129.942 420.247 131.235 421.54 132.142 423.22C133.075 424.873 133.542 426.78 133.542 428.94ZM127.742 427.34C127.715 425.9 127.195 424.753 126.182 423.9C125.168 423.02 123.928 422.58 122.462 422.58C121.075 422.58 119.902 423.007 118.942 423.86C118.008 424.687 117.435 425.847 117.222 427.34H127.742ZM150.149 418.02C151.829 418.02 153.322 418.393 154.629 419.14C155.936 419.86 156.949 420.94 157.669 422.38C158.416 423.793 158.789 425.5 158.789 427.5V440.5H153.189V428.26C153.189 426.5 152.749 425.153 151.869 424.22C150.989 423.26 149.789 422.78 148.269 422.78C146.722 422.78 145.496 423.26 144.589 424.22C143.709 425.153 143.269 426.5 143.269 428.26V440.5H137.669V410.9H143.269V421.1C143.989 420.14 144.949 419.393 146.149 418.86C147.349 418.3 148.682 418.02 150.149 418.02ZM162.714 429.34C162.714 427.1 163.154 425.113 164.034 423.38C164.941 421.647 166.154 420.313 167.674 419.38C169.221 418.447 170.941 417.98 172.834 417.98C174.488 417.98 175.928 418.313 177.154 418.98C178.408 419.647 179.408 420.487 180.154 421.5V418.34H185.794V440.5H180.154V437.26C179.434 438.3 178.434 439.167 177.154 439.86C175.901 440.527 174.448 440.86 172.794 440.86C170.928 440.86 169.221 440.38 167.674 439.42C166.154 438.46 164.941 437.113 164.034 435.38C163.154 433.62 162.714 431.607 162.714 429.34ZM180.154 429.42C180.154 428.06 179.888 426.9 179.354 425.94C178.821 424.953 178.101 424.207 177.194 423.7C176.288 423.167 175.314 422.9 174.274 422.9C173.234 422.9 172.274 423.153 171.394 423.66C170.514 424.167 169.794 424.913 169.234 425.9C168.701 426.86 168.434 428.007 168.434 429.34C168.434 430.673 168.701 431.847 169.234 432.86C169.794 433.847 170.514 434.607 171.394 435.14C172.301 435.673 173.261 435.94 174.274 435.94C175.314 435.94 176.288 435.687 177.194 435.18C178.101 434.647 178.821 433.9 179.354 432.94C179.888 431.953 180.154 430.78 180.154 429.42ZM196.904 421.78C197.624 420.607 198.557 419.687 199.704 419.02C200.877 418.353 202.21 418.02 203.704 418.02V423.9H202.224C200.464 423.9 199.13 424.313 198.224 425.14C197.344 425.967 196.904 427.407 196.904 429.46V440.5H191.304V418.34H196.904V421.78ZM240.967 440.5H235.367L222.687 421.34V440.5H217.087V412.54H222.687L235.367 431.74V412.54H240.967V440.5ZM267.141 428.94C267.141 429.74 267.088 430.46 266.981 431.1H250.781C250.914 432.7 251.474 433.953 252.461 434.86C253.448 435.767 254.661 436.22 256.101 436.22C258.181 436.22 259.661 435.327 260.541 433.54H266.581C265.941 435.673 264.714 437.433 262.901 438.82C261.088 440.18 258.861 440.86 256.221 440.86C254.088 440.86 252.168 440.393 250.461 439.46C248.781 438.5 247.461 437.153 246.501 435.42C245.568 433.687 245.101 431.687 245.101 429.42C245.101 427.127 245.568 425.113 246.501 423.38C247.434 421.647 248.741 420.313 250.421 419.38C252.101 418.447 254.034 417.98 256.221 417.98C258.328 417.98 260.208 418.433 261.861 419.34C263.541 420.247 264.834 421.54 265.741 423.22C266.674 424.873 267.141 426.78 267.141 428.94ZM261.341 427.34C261.314 425.9 260.794 424.753 259.781 423.9C258.768 423.02 257.528 422.58 256.061 422.58C254.674 422.58 253.501 423.007 252.541 423.86C251.608 424.687 251.034 425.847 250.821 427.34H261.341ZM292.188 418.34V440.5H286.548V437.7C285.828 438.66 284.882 439.42 283.708 439.98C282.562 440.513 281.308 440.78 279.948 440.78C278.215 440.78 276.682 440.42 275.348 439.7C274.015 438.953 272.962 437.873 272.188 436.46C271.442 435.02 271.068 433.313 271.068 431.34V418.34H276.668V430.54C276.668 432.3 277.108 433.66 277.988 434.62C278.868 435.553 280.068 436.02 281.588 436.02C283.135 436.02 284.348 435.553 285.228 434.62C286.108 433.66 286.548 432.3 286.548 430.54V418.34H292.188ZM303.354 421.78C304.074 420.607 305.007 419.687 306.154 419.02C307.327 418.353 308.66 418.02 310.154 418.02V423.9H308.674C306.914 423.9 305.58 424.313 304.674 425.14C303.794 425.967 303.354 427.407 303.354 429.46V440.5H297.754V418.34H303.354V421.78ZM323.806 440.86C321.672 440.86 319.752 440.393 318.046 439.46C316.339 438.5 314.992 437.153 314.006 435.42C313.046 433.687 312.566 431.687 312.566 429.42C312.566 427.153 313.059 425.153 314.046 423.42C315.059 421.687 316.432 420.353 318.166 419.42C319.899 418.46 321.832 417.98 323.966 417.98C326.099 417.98 328.032 418.46 329.766 419.42C331.499 420.353 332.859 421.687 333.846 423.42C334.859 425.153 335.366 427.153 335.366 429.42C335.366 431.687 334.846 433.687 333.806 435.42C332.792 437.153 331.406 438.5 329.646 439.46C327.912 440.393 325.966 440.86 323.806 440.86ZM323.806 435.98C324.819 435.98 325.766 435.74 326.646 435.26C327.552 434.753 328.272 434.007 328.806 433.02C329.339 432.033 329.606 430.833 329.606 429.42C329.606 427.313 329.046 425.7 327.926 424.58C326.832 423.433 325.486 422.86 323.886 422.86C322.286 422.86 320.939 423.433 319.846 424.58C318.779 425.7 318.246 427.313 318.246 429.42C318.246 431.527 318.766 433.153 319.806 434.3C320.872 435.42 322.206 435.98 323.806 435.98Z" fill="white"/>
</g>
<defs>
<clipPath id="clip0_2370_6212">
<rect width="393" height="853" fill="white"/>
</clipPath>
</defs>
</svg>
