<svg width="40" height="40" viewBox="0 0 40 40" fill="none" xmlns="http://www.w3.org/2000/svg">
<path d="M36.6667 12.6V27.4C36.6665 27.6364 36.5996 27.868 36.4736 28.0681C36.3476 28.2681 36.1676 28.4285 35.9544 28.5307C35.7412 28.633 35.5035 28.6729 35.2686 28.646C35.0337 28.619 34.8112 28.5262 34.6267 28.3783L31.02 25.4833C30.9617 25.4364 30.9147 25.3771 30.8824 25.3096C30.8501 25.2421 30.8333 25.1682 30.8334 25.0933V14.9067C30.8333 14.8318 30.8501 14.7579 30.8824 14.6904C30.9147 14.6229 30.9617 14.5636 31.02 14.5167L34.6267 11.6217C34.8112 11.4738 35.0337 11.381 35.2686 11.354C35.5035 11.3271 35.7412 11.367 35.9544 11.4692C36.1676 11.5715 36.3476 11.7319 36.4736 11.9319C36.5996 12.132 36.6665 12.3636 36.6667 12.6ZM28.3334 26.6667V13.3333C28.4303 12.6542 28.3678 11.9617 28.1507 11.3109C27.9337 10.6601 27.5682 10.0687 27.0831 9.5836C26.598 9.09849 26.0066 8.73297 25.3558 8.51596C24.705 8.29895 24.0126 8.23643 23.3334 8.33333H8.33338C7.6542 8.23643 6.96179 8.29895 6.31097 8.51596C5.66014 8.73297 5.06876 9.09849 4.58365 9.5836C4.09854 10.0687 3.73301 10.6601 3.51601 11.3109C3.299 11.9617 3.23647 12.6542 3.33338 13.3333V26.6667C3.23647 27.3458 3.299 28.0382 3.51601 28.6891C3.73301 29.3399 4.09854 29.9313 4.58365 30.4164C5.06876 30.9015 5.66014 31.267 6.31097 31.484C6.96179 31.701 7.6542 31.7636 8.33338 31.6667H23.3334C24.0126 31.7636 24.705 31.701 25.3558 31.484C26.0066 31.267 26.598 30.9015 27.0831 30.4164C27.5682 29.9313 27.9337 29.3399 28.1507 28.6891C28.3678 28.0382 28.4303 27.3458 28.3334 26.6667Z" fill="#7FC0A6"/>
</svg>
