<svg width="16" height="16" viewBox="0 0 16 16" fill="none" xmlns="http://www.w3.org/2000/svg">
<path d="M14.6094 9.65C14.4196 9.23304 14.1772 8.83435 13.891 8.46304C12.8982 7.1787 11.809 5.5413 11.8002 5.52304C11.7447 5.44087 11.6571 5.39217 11.5607 5.39217C11.4644 5.39217 11.3738 5.44087 11.3213 5.52304C11.3154 5.53217 10.8278 6.26565 10.2116 7.13C9.96633 6.65217 9.67432 6.18957 9.33558 5.7513C7.8609 3.83696 6.24021 1.40522 6.22561 1.38087C6.17013 1.2987 6.08252 1.25 5.98616 1.25C5.88979 1.25 5.79927 1.2987 5.74671 1.38087C5.72919 1.40522 4.11142 3.84 2.63382 5.7513C2.21332 6.29609 1.85998 6.88043 1.58256 7.48609C0.954728 8.8587 0.837922 10.3713 1.24966 11.75C2.28048 15.1952 5.94528 15.25 5.98616 15.25C6.01244 15.25 7.76454 15.2226 9.18665 14.0752C10.1853 15.0035 11.4994 15.0187 11.5607 15.0187C11.587 15.0187 14.1246 14.9791 14.8401 12.59C15.1263 11.6374 15.0445 10.5904 14.6123 9.64391L14.6094 9.65ZM1.80449 11.5704C1.43655 10.3378 1.54168 8.98043 2.10527 7.74783C2.36224 7.18478 2.69222 6.64 3.08352 6.13174C4.23407 4.64043 5.46929 2.83565 5.98032 2.08087C6.48843 2.83565 7.72657 4.63739 8.87711 6.13174C9.26842 6.64 9.59839 7.18174 9.85537 7.74783C10.419 8.98043 10.527 10.3378 10.1561 11.5704C9.90793 12.3952 9.49327 12.9978 9.01728 13.4391C9.01144 13.4452 9.00268 13.4452 8.99684 13.4513C8.991 13.4574 8.991 13.4635 8.98516 13.4696C7.72949 14.6109 6.07084 14.6413 5.9774 14.6443C5.84307 14.6443 2.70098 14.5865 1.79865 11.5704H1.80449ZM14.2794 12.4135C13.6925 14.3735 11.6425 14.413 11.5578 14.413C11.5461 14.413 10.4569 14.3978 9.62468 13.6674C10.0802 13.1865 10.4715 12.5657 10.7168 11.75C11.1023 10.4596 11.0176 9.05043 10.492 7.75087C10.9271 7.14522 11.3184 6.57609 11.5578 6.22609C11.9374 6.78609 12.7113 7.90609 13.4355 8.84348C13.6954 9.17826 13.9115 9.54043 14.0838 9.91174C14.4517 10.7183 14.5218 11.607 14.2823 12.4135H14.2794Z" fill="#373C3A" stroke="#373C3A" stroke-width="0.3"/>
<path d="M5.64258 12.095C4.59008 11.675 3.89008 10.935 3.56758 9.89498C3.52508 9.76248 3.38508 9.68998 3.25508 9.72998C3.12258 9.76998 3.05008 9.91248 3.09008 10.0425C3.45758 11.215 4.27508 12.085 5.45758 12.5575C5.48758 12.57 5.52008 12.575 5.55008 12.575C5.65008 12.575 5.74258 12.515 5.78258 12.4175C5.83508 12.29 5.77258 12.145 5.64258 12.0925V12.095Z" fill="#373C3A"/>
</svg>
