<svg width="25" height="24" viewBox="0 0 25 24" fill="none" xmlns="http://www.w3.org/2000/svg">
<g clip-path="url(#clip0_1945_2107)">
<path fill-rule="evenodd" clip-rule="evenodd" d="M19.1379 11.1628C17.2893 11.1628 15.7891 12.6631 15.7891 14.5116C15.7891 16.3602 17.2893 17.8605 19.1379 17.8605C20.9865 17.8605 22.4867 16.3602 22.4867 14.5116C22.4867 12.6631 20.9865 11.1628 19.1379 11.1628ZM19.1379 12.8372C20.0622 12.8372 20.8123 13.5874 20.8123 14.5116C20.8123 15.4359 20.0622 16.1861 19.1379 16.1861C18.2136 16.1861 17.4635 15.4359 17.4635 14.5116C17.4635 13.5874 18.2136 12.8372 19.1379 12.8372Z" fill="black" stroke="white" stroke-width="0.5"/>
<path fill-rule="evenodd" clip-rule="evenodd" d="M15.9635 24C17.6602 24 20.6217 24 22.3184 23.9855C22.9447 23.9855 23.5385 23.6752 23.9013 23.155C24.2641 22.6348 24.349 21.9706 24.1302 21.3756C23.4012 19.3317 21.4399 17.8605 19.1371 17.8605C16.8375 17.8605 14.8773 19.3273 14.1294 21.3712C13.9084 21.9706 13.9944 22.6404 14.3605 23.1639C14.7255 23.6886 15.325 24 15.9635 24ZM15.9635 22.3256C15.8719 22.3256 15.786 22.2809 15.7335 22.2061C15.6811 22.1314 15.6688 22.0354 15.7 21.9494C15.7011 21.9494 15.7011 21.9483 15.7011 21.9483C16.2146 20.5451 17.5586 19.5349 19.1371 19.5349C20.7132 19.5349 22.055 20.5418 22.5562 21.9461C22.5573 21.9494 22.5573 21.9528 22.5584 21.955C22.5886 22.0365 22.5774 22.1269 22.5272 22.1972C22.4781 22.2687 22.3977 22.3111 22.3106 22.3111C22.3084 22.3111 22.3062 22.3111 22.3039 22.3111C20.6105 22.3256 17.6557 22.3256 15.9635 22.3256Z" fill="black" stroke="white" stroke-width="0.5"/>
<path fill-rule="evenodd" clip-rule="evenodd" d="M22.0174 8.65117V5.86047C22.0174 3.54866 20.1432 1.67442 17.8314 1.67442H4.43605C2.12423 1.67442 0.25 3.54866 0.25 5.86047V19.2558C0.25 21.5676 2.12423 23.4419 4.43605 23.4419H11.1337C11.5959 23.4419 11.9709 23.0668 11.9709 22.6047C11.9709 22.1425 11.5959 21.7674 11.1337 21.7674C11.1337 21.7674 7.35847 21.7674 4.43605 21.7674C3.04851 21.7674 1.92442 20.6434 1.92442 19.2558V5.86047C1.92442 4.47293 3.04851 3.34884 4.43605 3.34884H17.8314C19.2189 3.34884 20.343 4.47293 20.343 5.86047V8.65117C20.343 9.11331 20.7181 9.48838 21.1802 9.48838C21.6424 9.48838 22.0174 9.11331 22.0174 8.65117Z" fill="black" stroke="white" stroke-width="0.3"/>
<path fill-rule="evenodd" clip-rule="evenodd" d="M5.55273 0.837209V4.18605C5.55273 4.64819 5.9278 5.02326 6.38994 5.02326C6.85208 5.02326 7.22715 4.64819 7.22715 4.18605V0.837209C7.22715 0.37507 6.85208 0 6.38994 0C5.9278 0 5.55273 0.37507 5.55273 0.837209Z" fill="black"/>
<path fill-rule="evenodd" clip-rule="evenodd" d="M15.041 0.837209V4.18605C15.041 4.64819 15.4161 5.02326 15.8782 5.02326C16.3404 5.02326 16.7154 4.64819 16.7154 4.18605V0.837209C16.7154 0.37507 16.3404 0 15.8782 0C15.4161 0 15.041 0.37507 15.041 0.837209Z" fill="black"/>
<path fill-rule="evenodd" clip-rule="evenodd" d="M5.55205 10.6047H9.01252C9.47466 10.6047 9.84973 10.2296 9.84973 9.76745C9.84973 9.30531 9.47466 8.93024 9.01252 8.93024H5.55205C5.08991 8.93024 4.71484 9.30531 4.71484 9.76745C4.71484 10.2296 5.08991 10.6047 5.55205 10.6047Z" fill="black"/>
<path fill-rule="evenodd" clip-rule="evenodd" d="M5.55205 15.0698H11.1334C11.5956 15.0698 11.9707 14.6947 11.9707 14.2326C11.9707 13.7704 11.5956 13.3954 11.1334 13.3954H5.55205C5.08991 13.3954 4.71484 13.7704 4.71484 14.2326C4.71484 14.6947 5.08991 15.0698 5.55205 15.0698Z" fill="black"/>
</g>
<defs>
<clipPath id="clip0_1945_2107">
<rect width="24" height="24" fill="white" transform="translate(0.25)"/>
</clipPath>
</defs>
</svg>
