<svg width="16" height="16" viewBox="0 0 16 16" fill="none" xmlns="http://www.w3.org/2000/svg">
<g clip-path="url(#clip0_1679_3813)">
<path fill-rule="evenodd" clip-rule="evenodd" d="M4.45982 2.33645C3.64336 2.85421 2.90979 3.49597 2.33509 4.16675H4.00008C4.27622 4.16675 4.50008 4.39061 4.50008 4.66675C4.50008 4.94289 4.27622 5.16675 4.00008 5.16675H0.833415V2.00008C0.833415 1.72394 1.05727 1.50008 1.33341 1.50008C1.60955 1.50008 1.83341 1.72394 1.83341 2.00008V3.22733C2.43058 2.58439 3.14597 1.98551 3.92425 1.49195C5.15765 0.709768 6.58962 0.166748 8.00008 0.166748C12.3263 0.166748 15.8334 3.67385 15.8334 8.00008C15.8334 12.3263 12.3263 15.8334 8.00008 15.8334C3.67385 15.8334 0.166748 12.3263 0.166748 8.00008H1.16675C1.16675 11.774 4.22613 14.8334 8.00008 14.8334C11.774 14.8334 14.8334 11.774 14.8334 8.00008C14.8334 4.22613 11.774 1.16675 8.00008 1.16675C6.83615 1.16675 5.58904 1.62033 4.45982 2.33645ZM8.00008 4.83342C8.27621 4.83342 8.50008 5.05727 8.50008 5.33342V7.77435L10.2705 8.91288C10.5028 9.06221 10.57 9.37161 10.4206 9.60388C10.2713 9.83615 9.96188 9.90335 9.72962 9.75395L7.72962 8.46782C7.58655 8.37582 7.50008 8.21741 7.50008 8.04728V5.33342C7.50008 5.05727 7.72395 4.83342 8.00008 4.83342Z" fill="#373C3A"/>
</g>
<defs>
<clipPath id="clip0_1679_3813">
<rect width="16" height="16" fill="white"/>
</clipPath>
</defs>
</svg>
