<svg width="25" height="24" viewBox="0 0 25 24" fill="none" xmlns="http://www.w3.org/2000/svg">
<g clip-path="url(#clip0_1945_14097)">
<path d="M1.45312 5.15625C1.06481 5.15625 0.75 4.84144 0.75 4.45312V1.40625C0.75 0.630844 1.38084 0 2.15625 0H5.20312C5.59144 0 5.90625 0.314812 5.90625 0.703125C5.90625 1.09144 5.59144 1.40625 5.20312 1.40625H2.15625V4.45312C2.15625 4.84144 1.84144 5.15625 1.45312 5.15625Z" fill="black" stroke="white" stroke-width="0.1"/>
<path d="M5.20312 24H2.15625C1.38084 24 0.75 23.3692 0.75 22.5938V19.5469C0.75 19.1586 1.06481 18.8438 1.45312 18.8438C1.84144 18.8438 2.15625 19.1586 2.15625 19.5469V22.5938H5.20312C5.59144 22.5938 5.90625 22.9086 5.90625 23.2969C5.90625 23.6852 5.59144 24 5.20312 24Z" fill="black" stroke="white" stroke-width="0.1"/>
<path d="M23.3438 24H20.2969C19.9086 24 19.5938 23.6852 19.5938 23.2969C19.5938 22.9086 19.9086 22.5938 20.2969 22.5938H23.3438V19.5469C23.3438 19.1586 23.6586 18.8438 24.0469 18.8438C24.4352 18.8438 24.75 19.1586 24.75 19.5469V22.5938C24.75 23.3692 24.1192 24 23.3438 24Z" fill="black" stroke="white" stroke-width="0.1"/>
<path d="M24.0469 5.15625C23.6586 5.15625 23.3438 4.84144 23.3438 4.45312V1.40625H20.2969C19.9086 1.40625 19.5938 1.09144 19.5938 0.703125C19.5938 0.314812 19.9086 0 20.2969 0H23.3438C24.1192 0 24.75 0.630844 24.75 1.40625V4.45312C24.75 4.84144 24.4352 5.15625 24.0469 5.15625Z" fill="black" stroke="white" stroke-width="0.1"/>
<path d="M12.75 14.3756C12.3617 14.3756 12.0469 14.0607 12.0469 13.6724V10.2908C12.0469 9.90246 12.3617 9.58765 12.75 9.58765C13.1383 9.58765 13.4531 9.90246 13.4531 10.2908V13.6724C13.4531 14.0607 13.1383 14.3756 12.75 14.3756Z" fill="black" stroke="white" stroke-width="0.1"/>
<path d="M12.7502 23.9267C10.295 23.9267 7.99083 22.8729 6.26213 20.9593C4.55147 19.0658 3.60938 16.5529 3.60938 13.8836V10.0795C3.60938 7.41024 4.55147 4.89731 6.26213 3.0038C7.99083 1.09027 10.295 0.036377 12.7502 0.036377C15.2052 0.036377 17.5092 1.08999 19.2378 3.00319C20.9484 4.89638 21.8907 7.40888 21.8911 10.0779V13.8836C21.8911 16.5529 20.949 19.0658 19.2383 20.9593C17.5096 22.8729 15.2055 23.9267 12.7502 23.9267ZM12.7502 1.44263C8.48536 1.44263 5.01563 5.31708 5.01563 10.0795V13.8836C5.01563 18.646 8.48536 22.5205 12.7502 22.5205C17.0151 22.5205 20.4848 18.646 20.4848 13.8836V10.0782C20.4841 5.31647 17.0144 1.44263 12.7502 1.44263Z" fill="black" stroke="white" stroke-width="0.1"/>
<path d="M12.7502 20.8136C9.26077 20.8136 6.42188 17.7049 6.42188 13.8837V10.0796C6.42188 9.69128 6.73669 9.37646 7.125 9.37646C7.51331 9.37646 7.82812 9.69128 7.82812 10.0796V13.8837C7.82812 16.9295 10.0362 19.4073 12.7502 19.4073C15.4643 19.4073 17.6723 16.9295 17.6723 13.8837C17.6723 13.4954 17.9872 13.1806 18.3755 13.1806C18.7638 13.1806 19.0786 13.4954 19.0786 13.8837C19.0786 17.7048 16.2397 20.8136 12.7502 20.8136Z" fill="black" stroke="white" stroke-width="0.1"/>
<path d="M9.9375 14.5868C9.54919 14.5868 9.23438 14.272 9.23438 13.8837V10.0795C9.23438 7.97505 10.8116 6.26294 12.7502 6.26294C13.1385 6.26294 13.4534 6.57775 13.4534 6.96606C13.4534 7.35438 13.1385 7.66919 12.7502 7.66919C11.587 7.66919 10.6406 8.75046 10.6406 10.0795V13.8837C10.6406 14.272 10.3258 14.5868 9.9375 14.5868Z" fill="black" stroke="white" stroke-width="0.1"/>
<path d="M12.75 17.7002C12.3617 17.7002 12.0469 17.3854 12.0469 16.9971C12.0469 16.6088 12.3617 16.294 12.75 16.294C13.9132 16.294 14.8596 15.2127 14.8596 13.8836V10.0792C14.8596 9.69093 15.1744 9.37598 15.5627 9.37598C15.951 9.37598 16.2659 9.69065 16.2659 10.079V13.8836C16.2659 15.9881 14.6886 17.7002 12.75 17.7002Z" fill="black" stroke="white" stroke-width="0.1"/>
<path d="M19.0284 9.86241C19.0284 9.98757 19.0435 10.115 19.0256 10.2375C18.9713 10.6088 18.6478 10.8713 18.2925 10.8462C17.9178 10.8197 17.6314 10.5268 17.627 10.1423C17.6212 9.62354 17.5701 9.11124 17.439 8.60967C17.0701 7.19817 16.3227 6.05386 15.0911 5.26421C14.3843 4.81102 13.6074 4.57936 12.7675 4.5751C12.4631 4.57355 12.2277 4.44558 12.0943 4.16452C11.973 3.90914 12.0004 3.65733 12.1683 3.42994C12.3157 3.23011 12.5207 3.14189 12.7662 3.14485C13.887 3.1583 14.9239 3.46561 15.8686 4.07344C17.1811 4.91789 18.0685 6.10753 18.5995 7.57711C18.8659 8.31441 19.0032 9.07829 19.0284 9.86241Z" fill="black" stroke="white" stroke-width="0.1"/>
</g>
<defs>
<clipPath id="clip0_1945_14097">
<rect width="24" height="24" fill="white" transform="translate(0.75)"/>
</clipPath>
</defs>
</svg>
