<svg width="45" height="44" viewBox="0 0 45 44" fill="none" xmlns="http://www.w3.org/2000/svg">
<g clip-path="url(#clip0_1945_16047)">
<path d="M33.4461 23.9076L32.4476 23.0857C31.7637 22.5227 31.7649 21.4762 32.4477 20.9143L33.4461 20.0924C34.1565 19.5075 34.3383 18.5044 33.8782 17.7073L31.9067 14.2927C31.4465 13.4956 30.4867 13.1515 29.6251 13.4743L28.4141 13.928C27.5846 14.2387 26.679 13.7147 26.5336 12.8424L26.321 11.5667C26.1697 10.6589 25.3919 10 24.4716 10H20.5287C19.6083 10 18.8304 10.6589 18.6792 11.5668L18.4665 12.8424C18.3209 13.7162 17.4141 14.2382 16.5861 13.9281L15.3751 13.4743C14.5134 13.1515 13.5538 13.4957 13.0935 14.2927L11.1221 17.7073C10.6619 18.5043 10.8436 19.5074 11.5542 20.0924L12.5526 20.9143C13.2366 21.4773 13.2352 22.5237 12.5526 23.0856L11.5541 23.9075C10.8436 24.4925 10.6619 25.4956 11.122 26.2926L13.0935 29.7073C13.5537 30.5043 14.5132 30.8484 15.3751 30.5256L16.5861 30.0719C17.4157 29.7611 18.3211 30.2855 18.4665 31.1576L18.6791 32.4332C18.8304 33.3411 19.6083 34 20.5286 34H24.4715C25.3919 34 26.1697 33.3411 26.321 32.4333L26.5335 31.1577C26.6791 30.284 27.5859 29.7617 28.414 30.072L29.6251 30.5257C30.487 30.8485 31.4465 30.5044 31.9067 29.7073L33.8782 26.2926C34.3383 25.4956 34.1565 24.4925 33.4461 23.9076ZM30.2829 28.7698L29.0719 28.3161C27.136 27.5909 25.0233 28.8144 24.6841 30.8494L24.4716 32.125H20.5287L20.316 30.8494C19.9762 28.8105 17.8605 27.5923 15.9283 28.3161L14.7173 28.7698L12.7459 25.3552L13.7443 24.5333C15.3403 23.2194 15.337 20.7779 13.7443 19.4667L12.7459 18.6448L14.7173 15.2302L15.9283 15.6839C17.8642 16.409 19.9769 15.1856 20.316 13.1506L20.5286 11.875H24.4715L24.6841 13.1506C25.0239 15.1898 27.1398 16.4075 29.0718 15.6839L30.2828 15.2302L32.2547 18.6444C32.2547 18.6444 32.2546 18.6445 32.2542 18.6448L31.2559 19.4667C29.6599 20.7805 29.6631 23.222 31.2558 24.5332L32.2543 25.3551L30.2829 28.7698ZM22.5001 17.375C19.9499 17.375 17.8751 19.4498 17.8751 22C17.8751 24.5502 19.9499 26.625 22.5001 26.625C25.0503 26.625 27.1251 24.5502 27.1251 22C27.1251 19.4498 25.0503 17.375 22.5001 17.375ZM22.5001 24.75C20.9837 24.75 19.7501 23.5164 19.7501 22C19.7501 20.4836 20.9837 19.25 22.5001 19.25C24.0165 19.25 25.2501 20.4836 25.2501 22C25.2501 23.5164 24.0165 24.75 22.5001 24.75Z" fill="#2B8A83" stroke="white" stroke-width="0.5"/>
</g>
<defs>
<clipPath id="clip0_1945_16047">
<rect width="24" height="24" fill="white" transform="translate(10.5 10)"/>
</clipPath>
</defs>
</svg>
