<svg width="44" height="44" viewBox="0 0 44 44" fill="none" xmlns="http://www.w3.org/2000/svg">
<g clip-path="url(#clip0_1945_15316)">
<path d="M33.1763 23.5737C32.0797 22.4771 30.2953 22.4771 29.1994 23.573L24.0524 28.7085C23.9431 28.8177 23.8625 28.9521 23.8176 29.0998L22.6967 32.7899C22.5972 33.1172 22.684 33.4724 22.9226 33.7172C23.1015 33.9005 23.3445 34.0001 23.5939 34.0001C23.6772 34.0001 23.7614 33.9889 23.844 33.9658L27.628 32.9178C27.7837 32.8745 27.9256 32.792 28.04 32.6779L33.1763 27.5513C34.2727 26.4545 34.2727 24.6704 33.1763 23.5737ZM26.8899 31.1766L24.9862 31.704L25.5434 29.8698L29.0162 26.4045L30.3424 27.7306L26.8899 31.1766ZM31.851 26.2247L31.6693 26.406L30.3435 25.0801L30.5246 24.8994C30.8901 24.5339 31.4848 24.5339 31.8504 24.8994C32.2159 25.2651 32.2159 25.8598 31.851 26.2247ZM20.7343 33.0624C20.7343 33.5802 20.3147 33.9999 19.7968 33.9999H13.75C11.6824 33.9999 10 32.3177 10 30.2499V13.75C10 11.6822 11.6824 10 13.75 10H25.2761C27.3439 10 29.026 11.6822 29.026 13.75V20.9687C29.026 21.4865 28.6064 21.9062 28.0886 21.9062C27.5707 21.9062 27.1511 21.4865 27.1511 20.9687V13.75C27.1511 12.7162 26.3099 11.875 25.2761 11.875H13.75C12.7162 11.875 11.875 12.7162 11.875 13.75V30.2499C11.875 31.2837 12.7162 32.1249 13.75 32.1249H19.7968C20.3147 32.1249 20.7343 32.5446 20.7343 33.0624ZM25.2812 16.9843C25.2812 17.5022 24.8615 17.9218 24.3437 17.9218H21.5781C21.0603 17.9218 20.6406 17.5022 20.6406 16.9843C20.6406 16.4665 21.0603 16.0469 21.5781 16.0469H24.3437C24.8615 16.0469 25.2812 16.4665 25.2812 16.9843ZM19.6291 15.0502L17.441 17.6985C17.1557 18.0502 16.7335 18.2688 16.2814 18.299C16.2455 18.3014 16.2094 18.3027 16.1736 18.3027C15.7564 18.3027 15.3507 18.1418 15.0469 17.8524C15.0383 17.8444 15.0299 17.836 15.0215 17.8274L14.0159 16.7947C13.6546 16.4237 13.6626 15.8302 14.0334 15.469C14.4044 15.1077 14.9978 15.1156 15.3591 15.4866L16.1584 16.3072L18.1835 13.856C18.5133 13.4568 19.1043 13.4006 19.5033 13.7304C19.9025 14.0602 19.9587 14.651 19.6291 15.0502ZM24.3437 23.6874H21.5781C21.0603 23.6874 20.6406 23.2678 20.6406 22.7499C20.6406 22.2321 21.0603 21.8125 21.5781 21.8125H24.3437C24.8615 21.8125 25.2812 22.2321 25.2812 22.7499C25.2812 23.2678 24.8615 23.6874 24.3437 23.6874ZM19.6291 20.81L17.441 23.4584C17.1557 23.8099 16.7335 24.0288 16.2814 24.0588C16.2455 24.0612 16.2094 24.0624 16.1736 24.0624C15.7563 24.0624 15.3507 23.9015 15.0467 23.6122C15.0389 23.6047 15.031 23.597 15.0233 23.5891L14.0177 22.5621C13.6555 22.1922 13.6617 21.5986 14.0316 21.2364C14.4015 20.874 14.9951 20.8803 15.3573 21.2503L16.1578 22.0677L18.1835 19.6157C18.5133 19.2166 19.1043 19.1605 19.5033 19.4901C19.9025 19.8199 19.9587 20.4108 19.6291 20.81ZM19.6291 26.4818L17.441 29.1302C17.1557 29.4818 16.7335 29.7006 16.2814 29.7306C16.2455 29.733 16.2094 29.7343 16.1736 29.7343C15.7563 29.7343 15.3507 29.5733 15.0467 29.284C15.0389 29.2765 15.031 29.2688 15.0233 29.261L14.0177 28.2339C13.6555 27.8641 13.6617 27.2704 14.0316 26.9083C14.4015 26.5459 14.9951 26.5521 15.3573 26.9222L16.1578 27.7396L18.1835 25.2876C18.5133 24.8884 19.1043 24.8324 19.5033 25.162C19.9025 25.4918 19.9587 26.0826 19.6291 26.4818Z" fill="#2B8A83" stroke="white" stroke-width="0.6"/>
</g>
<defs>
<clipPath id="clip0_1945_15316">
<rect width="23.9999" height="24" fill="white" transform="translate(10 10)"/>
</clipPath>
</defs>
</svg>
