<svg width="44" height="44" viewBox="0 0 44 44" fill="none" xmlns="http://www.w3.org/2000/svg">
<path d="M32.766 18.9411L22.3377 11.1132C22.1366 10.9623 21.8634 10.9623 21.6624 11.1132L11.234 18.9411C10.9793 19.1323 10.9239 19.499 11.1105 19.7601C11.297 20.0213 11.6547 20.0779 11.9094 19.8868L22 12.3123L32.0906 19.8868C32.1924 19.9632 32.3106 20 32.4279 20C32.6039 20 32.7775 19.9169 32.8895 19.7601C33.0761 19.499 33.0207 19.1323 32.766 18.9411Z" fill="#2B8A83" stroke="#2B8A83" stroke-width="0.3"/>
<path d="M30.7306 20.9005C30.3862 20.9005 30.107 21.1797 30.107 21.5241V31.4498H25.1185V26.0317C25.1185 24.3124 23.7196 22.9136 22.0003 22.9136C20.2811 22.9136 18.8822 24.3124 18.8822 26.0317V31.4499H13.8936V21.5241C13.8936 21.1797 13.6144 20.9006 13.2701 20.9006C12.9257 20.9006 12.6465 21.1797 12.6465 21.5241V32.0735C12.6465 32.4179 12.9257 32.6971 13.2701 32.6971H19.5058C19.8337 32.6971 20.1021 32.4437 20.1269 32.1221C20.1284 32.1075 20.1294 32.0915 20.1294 32.0735V26.0318C20.1294 25.0001 20.9687 24.1608 22.0003 24.1608C23.032 24.1608 23.8713 25.0002 23.8713 26.0318V32.0735C23.8713 32.0914 23.8723 32.1071 23.8738 32.1215C23.8983 32.4434 24.1668 32.6971 24.4949 32.6971H30.7306C31.075 32.6971 31.3542 32.4179 31.3542 32.0735V21.5241C31.3542 21.1797 31.075 20.9005 30.7306 20.9005Z" fill="#2B8A83"/>
</svg>
