<svg width="45" height="44" viewBox="0 0 45 44" fill="none" xmlns="http://www.w3.org/2000/svg">
<g clip-path="url(#clip0_1945_15880)">
<path d="M10.9531 15.1562C10.5648 15.1562 10.25 14.8414 10.25 14.4531V11.4062C10.25 10.6308 10.8808 10 11.6562 10H14.7031C15.0914 10 15.4062 10.3148 15.4062 10.7031C15.4062 11.0914 15.0914 11.4062 14.7031 11.4062H11.6562V14.4531C11.6562 14.8414 11.3414 15.1562 10.9531 15.1562Z" fill="#2B8A83" stroke="white" stroke-width="0.1"/>
<path d="M14.7031 34H11.6562C10.8808 34 10.25 33.3692 10.25 32.5938V29.5469C10.25 29.1586 10.5648 28.8438 10.9531 28.8438C11.3414 28.8438 11.6562 29.1586 11.6562 29.5469V32.5938H14.7031C15.0914 32.5938 15.4062 32.9086 15.4062 33.2969C15.4062 33.6852 15.0914 34 14.7031 34Z" fill="#2B8A83" stroke="white" stroke-width="0.1"/>
<path d="M32.8438 34H29.7969C29.4086 34 29.0938 33.6852 29.0938 33.2969C29.0938 32.9086 29.4086 32.5938 29.7969 32.5938H32.8438V29.5469C32.8438 29.1586 33.1586 28.8438 33.5469 28.8438C33.9352 28.8438 34.25 29.1586 34.25 29.5469V32.5938C34.25 33.3692 33.6192 34 32.8438 34Z" fill="#2B8A83" stroke="white" stroke-width="0.1"/>
<path d="M33.5469 15.1562C33.1586 15.1562 32.8438 14.8414 32.8438 14.4531V11.4062H29.7969C29.4086 11.4062 29.0938 11.0914 29.0938 10.7031C29.0938 10.3148 29.4086 10 29.7969 10H32.8438C33.6192 10 34.25 10.6308 34.25 11.4062V14.4531C34.25 14.8414 33.9352 15.1562 33.5469 15.1562Z" fill="#2B8A83" stroke="white" stroke-width="0.1"/>
<path d="M22.25 24.3756C21.8617 24.3756 21.5469 24.0607 21.5469 23.6724V20.2908C21.5469 19.9025 21.8617 19.5876 22.25 19.5876C22.6383 19.5876 22.9531 19.9025 22.9531 20.2908V23.6724C22.9531 24.0607 22.6383 24.3756 22.25 24.3756Z" fill="#2B8A83" stroke="white" stroke-width="0.1"/>
<path d="M22.2502 33.9267C19.795 33.9267 17.4908 32.8729 15.7621 30.9593C14.0515 29.0658 13.1094 26.5529 13.1094 23.8836V20.0795C13.1094 17.4102 14.0515 14.8973 15.7621 13.0038C17.4908 11.0903 19.795 10.0364 22.2502 10.0364C24.7052 10.0364 27.0092 11.09 28.7378 13.0032C30.4484 14.8964 31.3907 17.4089 31.3911 20.0779V23.8836C31.3911 26.5529 30.449 29.0658 28.7383 30.9593C27.0096 32.8729 24.7055 33.9267 22.2502 33.9267ZM22.2502 11.4426C17.9854 11.4426 14.5156 15.3171 14.5156 20.0795V23.8836C14.5156 28.646 17.9854 32.5205 22.2502 32.5205C26.5151 32.5205 29.9848 28.646 29.9848 23.8836V20.0782C29.9841 15.3165 26.5144 11.4426 22.2502 11.4426Z" fill="#2B8A83" stroke="white" stroke-width="0.1"/>
<path d="M22.2502 30.8136C18.7608 30.8136 15.9219 27.7049 15.9219 23.8837V20.0796C15.9219 19.6913 16.2367 19.3765 16.625 19.3765C17.0133 19.3765 17.3281 19.6913 17.3281 20.0796V23.8837C17.3281 26.9295 19.5362 29.4073 22.2502 29.4073C24.9643 29.4073 27.1723 26.9295 27.1723 23.8837C27.1723 23.4954 27.4872 23.1806 27.8755 23.1806C28.2638 23.1806 28.5786 23.4954 28.5786 23.8837C28.5786 27.7048 25.7397 30.8136 22.2502 30.8136Z" fill="#2B8A83" stroke="white" stroke-width="0.1"/>
<path d="M19.4375 24.5868C19.0492 24.5868 18.7344 24.272 18.7344 23.8837V20.0795C18.7344 17.975 20.3116 16.2629 22.2502 16.2629C22.6385 16.2629 22.9534 16.5778 22.9534 16.9661C22.9534 17.3544 22.6385 17.6692 22.2502 17.6692C21.087 17.6692 20.1406 18.7505 20.1406 20.0795V23.8837C20.1406 24.272 19.8258 24.5868 19.4375 24.5868Z" fill="#2B8A83" stroke="white" stroke-width="0.1"/>
<path d="M22.25 27.7002C21.8617 27.7002 21.5469 27.3854 21.5469 26.9971C21.5469 26.6088 21.8617 26.294 22.25 26.294C23.4132 26.294 24.3596 25.2127 24.3596 23.8836V20.0792C24.3596 19.6909 24.6744 19.376 25.0627 19.376C25.451 19.376 25.7659 19.6906 25.7659 20.079V23.8836C25.7659 25.9881 24.1886 27.7002 22.25 27.7002Z" fill="#2B8A83" stroke="white" stroke-width="0.1"/>
<path d="M28.5284 19.8624C28.5284 19.9876 28.5435 20.115 28.5256 20.2375C28.4713 20.6088 28.1478 20.8713 27.7925 20.8462C27.4178 20.8197 27.1314 20.5268 27.127 20.1423C27.1212 19.6235 27.0701 19.1112 26.939 18.6097C26.5701 17.1982 25.8227 16.0539 24.5911 15.2642C23.8843 14.811 23.1074 14.5794 22.2675 14.5751C21.9631 14.5736 21.7277 14.4456 21.5943 14.1645C21.473 13.9091 21.5004 13.6573 21.6683 13.4299C21.8157 13.2301 22.0207 13.1419 22.2662 13.1448C23.387 13.1583 24.4239 13.4656 25.3686 14.0734C26.6811 14.9179 27.5685 16.1075 28.0995 17.5771C28.3659 18.3144 28.5032 19.0783 28.5284 19.8624Z" fill="#2B8A83" stroke="white" stroke-width="0.1"/>
</g>
<defs>
<clipPath id="clip0_1945_15880">
<rect width="24" height="24" fill="white" transform="translate(10.25 10)"/>
</clipPath>
</defs>
</svg>
