<svg width="45" height="44" viewBox="0 0 45 44" fill="none" xmlns="http://www.w3.org/2000/svg">
<g clip-path="url(#clip0_1945_14083)">
<path fill-rule="evenodd" clip-rule="evenodd" d="M29.1379 21.1628C27.2893 21.1628 25.7891 22.6631 25.7891 24.5117C25.7891 26.3602 27.2893 27.8605 29.1379 27.8605C30.9865 27.8605 32.4867 26.3602 32.4867 24.5117C32.4867 22.6631 30.9865 21.1628 29.1379 21.1628ZM29.1379 22.8373C30.0622 22.8373 30.8123 23.5874 30.8123 24.5117C30.8123 25.436 30.0622 26.1861 29.1379 26.1861C28.2136 26.1861 27.4635 25.436 27.4635 24.5117C27.4635 23.5874 28.2136 22.8373 29.1379 22.8373Z" fill="#2B8A83" stroke="white" stroke-width="0.5"/>
<path fill-rule="evenodd" clip-rule="evenodd" d="M25.9644 34C27.6612 34 30.6227 34 32.3194 33.9855C32.9457 33.9855 33.5395 33.6752 33.9023 33.155C34.2651 32.6348 34.3499 31.9706 34.1311 31.3756C33.4022 29.3317 31.4409 27.8605 29.138 27.8605C26.8385 27.8605 24.8783 29.3273 24.1304 31.3712C23.9094 31.9706 23.9953 32.6404 24.3615 33.1639C24.7265 33.6886 25.3259 34 25.9644 34ZM25.9644 32.3256C25.8729 32.3256 25.787 32.2809 25.7345 32.2061C25.682 32.1314 25.6697 32.0354 25.701 31.9494C25.7021 31.9494 25.7021 31.9483 25.7021 31.9483C26.2156 30.5451 27.5596 29.5349 29.138 29.5349C30.7142 29.5349 32.056 30.5418 32.5572 31.9461C32.5583 31.9494 32.5583 31.9528 32.5594 31.955C32.5896 32.0365 32.5784 32.1269 32.5282 32.1972C32.4791 32.2687 32.3987 32.3111 32.3116 32.3111C32.3094 32.3111 32.3071 32.3111 32.3049 32.3111C30.6115 32.3256 27.6567 32.3256 25.9644 32.3256Z" fill="#2B8A83" stroke="white" stroke-width="0.5"/>
<path fill-rule="evenodd" clip-rule="evenodd" d="M32.0174 18.6512V15.8605C32.0174 13.5487 30.1432 11.6744 27.8314 11.6744H14.436C12.1242 11.6744 10.25 13.5487 10.25 15.8605V29.2558C10.25 31.5676 12.1242 33.4419 14.436 33.4419H21.1337C21.5959 33.4419 21.9709 33.0668 21.9709 32.6047C21.9709 32.1425 21.5959 31.7675 21.1337 31.7675C21.1337 31.7675 17.3585 31.7675 14.436 31.7675C13.0485 31.7675 11.9244 30.6434 11.9244 29.2558V15.8605C11.9244 14.473 13.0485 13.3489 14.436 13.3489H27.8314C29.2189 13.3489 30.343 14.473 30.343 15.8605V18.6512C30.343 19.1133 30.7181 19.4884 31.1802 19.4884C31.6424 19.4884 32.0174 19.1133 32.0174 18.6512Z" fill="#2B8A83" stroke="white" stroke-width="0.3"/>
<path fill-rule="evenodd" clip-rule="evenodd" d="M15.5527 10.8372V14.186C15.5527 14.6482 15.9278 15.0233 16.3899 15.0233C16.8521 15.0233 17.2272 14.6482 17.2272 14.186V10.8372C17.2272 10.3751 16.8521 10 16.3899 10C15.9278 10 15.5527 10.3751 15.5527 10.8372Z" fill="#2B8A83"/>
<path fill-rule="evenodd" clip-rule="evenodd" d="M25.041 10.8372V14.186C25.041 14.6482 25.4161 15.0233 25.8782 15.0233C26.3404 15.0233 26.7154 14.6482 26.7154 14.186V10.8372C26.7154 10.3751 26.3404 10 25.8782 10C25.4161 10 25.041 10.3751 25.041 10.8372Z" fill="#2B8A83"/>
<path fill-rule="evenodd" clip-rule="evenodd" d="M15.5521 20.6046H19.0125C19.4747 20.6046 19.8497 20.2295 19.8497 19.7674C19.8497 19.3052 19.4747 18.9302 19.0125 18.9302H15.5521C15.0899 18.9302 14.7148 19.3052 14.7148 19.7674C14.7148 20.2295 15.0899 20.6046 15.5521 20.6046Z" fill="#2B8A83"/>
<path fill-rule="evenodd" clip-rule="evenodd" d="M15.5521 25.0698H21.1334C21.5956 25.0698 21.9707 24.6947 21.9707 24.2326C21.9707 23.7705 21.5956 23.3954 21.1334 23.3954H15.5521C15.0899 23.3954 14.7148 23.7705 14.7148 24.2326C14.7148 24.6947 15.0899 25.0698 15.5521 25.0698Z" fill="#2B8A83"/>
</g>
<defs>
<clipPath id="clip0_1945_14083">
<rect width="24" height="24" fill="white" transform="translate(10.25 10)"/>
</clipPath>
</defs>
</svg>
