<svg width="25" height="24" viewBox="0 0 25 24" fill="none" xmlns="http://www.w3.org/2000/svg">
<path d="M23.266 8.94109L12.8377 1.11319C12.6366 0.962269 12.3634 0.962269 12.1624 1.11319L1.73399 8.94109C1.47927 9.13232 1.42393 9.49901 1.61045 9.76015C1.79698 10.0213 2.1547 10.0779 2.40937 9.8868L12.5 2.31233L22.5906 9.88676C22.6924 9.96319 22.8106 9.99997 22.9279 9.99997C23.1039 9.99997 23.2775 9.91693 23.3895 9.76011C23.5761 9.49901 23.5207 9.13232 23.266 8.94109Z" fill="black" stroke="black" stroke-width="0.3"/>
<path d="M21.2306 10.9004C20.8862 10.9004 20.607 11.1796 20.607 11.524V21.4497H15.6185V16.0316C15.6185 14.3122 14.2196 12.9135 12.5003 12.9135C10.7811 12.9135 9.38222 14.3123 9.38222 16.0316V21.4497H4.39364V11.524C4.39364 11.1796 4.11441 10.9004 3.77006 10.9004C3.42572 10.9004 3.14648 11.1796 3.14648 11.524V22.0734C3.14648 22.4178 3.42572 22.697 3.77006 22.697H10.0058C10.3337 22.697 10.6021 22.4436 10.6269 22.1219C10.6284 22.1074 10.6294 22.0914 10.6294 22.0734V16.0317C10.6294 15 11.4687 14.1607 12.5003 14.1607C13.532 14.1607 14.3713 15 14.3713 16.0317V22.0734C14.3713 22.0913 14.3723 22.107 14.3738 22.1214C14.3983 22.4433 14.6668 22.697 14.9949 22.697H21.2306C21.575 22.697 21.8542 22.4178 21.8542 22.0734V11.524C21.8542 11.1796 21.575 10.9004 21.2306 10.9004Z" fill="black"/>
</svg>
