<svg width="25" height="24" viewBox="0 0 25 24" fill="none" xmlns="http://www.w3.org/2000/svg">
<g clip-path="url(#clip0_1945_14094)">
<path d="M23.6763 13.5737C22.5797 12.4771 20.7953 12.4771 19.6994 13.573L14.5524 18.7085C14.4431 18.8177 14.3625 18.9521 14.3176 19.0998L13.1967 22.7899C13.0972 23.1172 13.184 23.4724 13.4226 23.7172C13.6015 23.9005 13.8445 24.0001 14.0939 24.0001C14.1772 24.0001 14.2614 23.9889 14.344 23.9658L18.128 22.9178C18.2837 22.8745 18.4256 22.792 18.54 22.6779L23.6763 17.5513C24.7727 16.4545 24.7727 14.6704 23.6763 13.5737ZM17.3899 21.1766L15.4862 21.704L16.0434 19.8698L19.5162 16.4045L20.8424 17.7306L17.3899 21.1766ZM22.351 16.2247L22.1693 16.406L20.8435 15.0801L21.0246 14.8994C21.3901 14.5339 21.9848 14.5339 22.3504 14.8994C22.7159 15.2651 22.7159 15.8598 22.351 16.2247ZM11.2343 23.0624C11.2343 23.5802 10.8147 23.9999 10.2968 23.9999H4.24999C2.18237 23.9999 0.5 22.3177 0.5 20.2499V3.74999C0.5 1.68218 2.18237 0 4.24999 0H15.7761C17.8439 0 19.526 1.68218 19.526 3.74999V10.9687C19.526 11.4865 19.1064 11.9062 18.5886 11.9062C18.0707 11.9062 17.6511 11.4865 17.6511 10.9687V3.74999C17.6511 2.71618 16.8099 1.87499 15.7761 1.87499H4.24999C3.21618 1.87499 2.37499 2.71618 2.37499 3.74999V20.2499C2.37499 21.2837 3.21618 22.1249 4.24999 22.1249H10.2968C10.8147 22.1249 11.2343 22.5446 11.2343 23.0624ZM15.7812 6.98435C15.7812 7.50217 15.3615 7.92184 14.8437 7.92184H12.0781C11.5603 7.92184 11.1406 7.50217 11.1406 6.98435C11.1406 6.46653 11.5603 6.04685 12.0781 6.04685H14.8437C15.3615 6.04685 15.7812 6.46653 15.7812 6.98435ZM10.1291 5.05021L7.94101 7.69846C7.65573 8.0502 7.23349 8.26883 6.78141 8.29904C6.74552 8.30142 6.70945 8.3027 6.67356 8.3027C6.25645 8.3027 5.85069 8.14175 5.54692 7.85245C5.53831 7.84439 5.52989 7.83597 5.52146 7.82736L4.51585 6.79465C4.15459 6.42368 4.16264 5.83024 4.53343 5.46897C4.9044 5.10771 5.49784 5.11558 5.85911 5.48655L6.65836 6.30723L8.6835 3.856C9.01327 3.45683 9.60433 3.40062 10.0033 3.73039C10.4025 4.06016 10.4587 4.65104 10.1291 5.05021ZM14.8437 13.6874H12.0781C11.5603 13.6874 11.1406 13.2678 11.1406 12.7499C11.1406 12.2321 11.5603 11.8125 12.0781 11.8125H14.8437C15.3615 11.8125 15.7812 12.2321 15.7812 12.7499C15.7812 13.2678 15.3615 13.6874 14.8437 13.6874ZM10.1291 10.81L7.94101 13.4584C7.65573 13.8099 7.23349 14.0288 6.78141 14.0588C6.74552 14.0612 6.70945 14.0624 6.67356 14.0624C6.25626 14.0624 5.85069 13.9015 5.54673 13.6122C5.53886 13.6047 5.53099 13.597 5.5233 13.5891L4.51768 12.5621C4.1555 12.1922 4.16173 11.5986 4.5316 11.2364C4.90147 10.874 5.4951 10.8803 5.85728 11.2503L6.65781 12.0677L8.6835 9.61575C9.01327 9.21658 9.60433 9.16055 10.0033 9.49014C10.4025 9.81991 10.4587 10.4108 10.1291 10.81ZM10.1291 16.4818L7.94101 19.1302C7.65573 19.4818 7.23349 19.7006 6.78141 19.7306C6.74552 19.733 6.70945 19.7343 6.67356 19.7343C6.25626 19.7343 5.85069 19.5733 5.54673 19.284C5.53886 19.2765 5.53099 19.2688 5.5233 19.261L4.51768 18.2339C4.1555 17.8641 4.16173 17.2704 4.5316 16.9083C4.90147 16.5459 5.4951 16.5521 5.85728 16.9222L6.65781 17.7396L8.6835 15.2876C9.01327 14.8884 9.60433 14.8324 10.0033 15.162C10.4025 15.4918 10.4587 16.0826 10.1291 16.4818Z" fill="black" stroke="white" stroke-width="0.8"/>
</g>
<defs>
<clipPath id="clip0_1945_14094">
<rect width="23.9999" height="24" fill="white" transform="translate(0.5)"/>
</clipPath>
</defs>
</svg>
