<svg width="32" height="32" viewBox="0 0 32 32" fill="none" xmlns="http://www.w3.org/2000/svg">
<path fill-rule="evenodd" clip-rule="evenodd" d="M19.946 12.338C18.8828 9.77105 16.1545 8.31253 13.4296 8.85445C10.7046 9.39638 8.74188 11.7878 8.74186 14.5662C8.74185 16.1104 9.35519 17.5914 10.447 18.6836C12.4114 20.6484 15.4902 20.9521 17.8004 19.4087C20.1107 17.8654 21.009 14.9049 19.946 12.338ZM13.0898 7.14606C16.6299 6.44205 20.1743 8.33679 21.5552 11.6715C22.9363 15.0063 21.7693 18.8521 18.768 20.8571C15.7667 22.8621 11.7671 22.4676 9.21518 19.9151C7.79678 18.4964 6.99998 16.5723 7 14.5662C7.00003 10.9568 9.54977 7.85007 13.0898 7.14606Z" fill="#373C3A" stroke="#EBEFF4" stroke-width="0.3"/>
<path fill-rule="evenodd" clip-rule="evenodd" d="M20.643 20.644C20.9832 20.3039 21.5346 20.3039 21.8748 20.644L24.7442 23.5134C25.0843 23.8536 25.0843 24.405 24.7442 24.7452C24.4041 25.0853 23.8526 25.0853 23.5125 24.7452L20.643 21.8757C20.3029 21.5356 20.3029 20.9841 20.643 20.644Z" fill="#373C3A"/>
</svg>
